<?xml version="1.0" encoding="UTF-8" standalone="no"?>
<!DOCTYPE svg PUBLIC "-//W3C//DTD SVG 1.1//EN"
"http://www.w3.org/Graphics/SVG/1.1/DTD/svg11.dtd">
<svg viewBox="0 308 909 12" version="1.1" xmlns="http://www.w3.org/2000/svg" xmlns:xlink="http://www.w3.org/1999/xlink">
<defs>
<style type="text/css"><![CDATA[
.g0{
fill: #FFFFFF;
}
]]></style>
</defs>
<path  d="M248.8,255.8v0c.1,0,.3,0,.4,.1c.1,.2,.2,.3,.2,.4c0,.2,-.1,.3,-.2,.4c-.1,.2,-.3,.2,-.4,.2c-.2,0,-.3,0,-.4,-.2c-.1,-.1,-.2,-.2,-.2,-.4c0,-.1,.1,-.3,.2,-.4c.1,-.1,.2,-.1,.4,-.1Zm2.3,0v0c.1,0,.3,0,.4,.1c.1,.2,.2,.3,.2,.4c0,.2,-.1,.3,-.2,.5c-.1,.1,-.3,.1,-.4,.1c-.2,0,-.3,0,-.4,-.1c-.1,-.2,-.2,-.3,-.2,-.5c0,-.1,.1,-.2,.2,-.4c.1,-.1,.2,-.1,.4,-.1Zm2.3,0v0c.1,0,.3,0,.4,.1c.1,.2,.2,.3,.2,.4c0,.2,-.1,.3,-.2,.5c-.1,.1,-.3,.1,-.4,.1c-.2,0,-.3,0,-.4,-.1c-.1,-.2,-.2,-.3,-.2,-.5c0,-.1,.1,-.2,.2,-.4c.1,-.1,.2,-.1,.4,-.1Zm2.3,0v0c.1,0,.3,0,.4,.1c.1,.2,.2,.3,.2,.5c0,.1,-.1,.2,-.2,.4c-.1,.1,-.3,.1,-.4,.1c-.2,0,-.3,0,-.4,-.1c-.1,-.2,-.2,-.3,-.2,-.4c0,-.2,.1,-.3,.2,-.5c.1,-.1,.2,-.1,.4,-.1Zm2.3,0v0c.1,0,.3,0,.4,.1c.1,.2,.1,.3,.1,.5c0,.1,0,.2,-.1,.4c-.1,.1,-.3,.1,-.4,.1c-.2,0,-.3,0,-.4,-.1c-.1,-.2,-.2,-.3,-.2,-.4c0,-.2,.1,-.3,.2,-.5c.1,-.1,.2,-.1,.4,-.1Zm2.3,0v0c.1,0,.3,0,.4,.2c.1,.1,.1,.2,.1,.4c0,.1,0,.2,-.1,.4c-.1,.1,-.3,.1,-.4,.1c-.2,0,-.3,0,-.4,-.1c-.2,-.2,-.2,-.3,-.2,-.4c0,-.2,.1,-.3,.2,-.5c.1,-.1,.2,-.1,.4,-.1Zm2.3,0v0c.1,0,.3,0,.4,.2c.1,.1,.1,.2,.1,.4c0,.1,0,.3,-.1,.4c-.1,.1,-.3,.1,-.4,.1c-.2,0,-.3,0,-.4,-.1c-.2,-.1,-.2,-.3,-.2,-.4c0,-.2,0,-.3,.2,-.4c.1,-.2,.2,-.2,.4,-.2Zm2.3,0v0c.1,0,.3,0,.4,.2c.1,.1,.1,.2,.1,.4c0,.1,0,.3,-.1,.4c-.1,.1,-.3,.1,-.4,.1c-.2,0,-.3,0,-.4,-.1c-.2,-.1,-.2,-.3,-.2,-.4c0,-.2,0,-.3,.2,-.4c.1,-.2,.2,-.2,.4,-.2Zm2.3,0v0c.1,0,.2,0,.4,.2c.1,.1,.1,.2,.1,.4c0,.1,0,.3,-.1,.4c-.2,.1,-.3,.1,-.4,.1c-.2,0,-.3,0,-.5,-.1c-.1,-.1,-.1,-.3,-.1,-.4c0,-.2,0,-.3,.1,-.4c.2,-.2,.3,-.2,.5,-.2Zm2.3,0v0c.1,0,.2,0,.4,.2c.1,.1,.1,.2,.1,.4c0,.1,0,.3,-.1,.4c-.2,.1,-.3,.1,-.5,.1c-.1,0,-.2,0,-.4,-.1c-.1,-.1,-.1,-.3,-.1,-.4c0,-.2,0,-.3,.1,-.4c.2,-.2,.3,-.2,.5,-.2Zm2.2,0v0c.2,0,.3,.1,.5,.2c.1,.1,.1,.2,.1,.4c0,.1,0,.3,-.1,.4c-.2,.1,-.3,.1,-.5,.1c-.1,0,-.2,0,-.4,-.1c-.1,-.1,-.1,-.3,-.1,-.4c0,-.2,0,-.3,.1,-.4c.2,-.1,.3,-.2,.4,-.2Zm2.3,0v0c.2,0,.3,.1,.4,.2c.2,.1,.2,.2,.2,.4c0,.1,0,.3,-.2,.4c-.1,.1,-.2,.1,-.4,.1c-.1,0,-.3,0,-.4,-.1c-.1,-.1,-.1,-.3,-.1,-.4c0,-.2,0,-.3,.1,-.4c.1,-.1,.3,-.2,.4,-.2Zm2.3,0v0c.2,0,.3,.1,.4,.2c.2,.1,.2,.2,.2,.4c0,.1,0,.3,-.2,.4c-.1,.1,-.2,.1,-.4,.1c-.1,0,-.3,0,-.4,-.1c-.1,-.1,-.1,-.3,-.1,-.4c0,-.2,0,-.3,.1,-.4c.1,-.1,.3,-.2,.4,-.2Zm2.3,0v0c.2,0,.3,.1,.4,.2c.2,.1,.2,.2,.2,.4c0,.1,0,.3,-.2,.4c-.1,.1,-.2,.1,-.4,.1c-.1,0,-.3,0,-.4,-.1c-.1,-.1,-.1,-.3,-.1,-.4c0,-.2,0,-.3,.1,-.4c.1,-.1,.3,-.2,.4,-.2Zm2.3,0v0c.2,0,.3,.1,.4,.2c.1,.1,.2,.2,.2,.4c0,.1,-.1,.3,-.2,.4c-.1,.1,-.2,.2,-.4,.2c-.1,0,-.3,-.1,-.4,-.2c-.1,-.1,-.1,-.3,-.1,-.4c0,-.2,0,-.3,.1,-.4c.1,-.1,.3,-.2,.4,-.2Zm2.3,0v0c.2,0,.3,.1,.4,.2c.1,.1,.2,.2,.2,.4c0,.1,-.1,.3,-.2,.4c-.1,.1,-.2,.2,-.4,.2c-.1,0,-.3,-.1,-.4,-.2c-.1,-.1,-.2,-.3,-.2,-.4c0,-.2,.1,-.3,.2,-.4c.1,-.1,.3,-.2,.4,-.2Zm2.3,0v0c.2,0,.3,.1,.4,.2c.1,.1,.2,.2,.2,.4c0,.1,-.1,.3,-.2,.4c-.1,.1,-.2,.2,-.4,.2c-.1,0,-.3,-.1,-.4,-.2c-.1,-.1,-.2,-.3,-.2,-.4c0,-.2,.1,-.3,.2,-.4c.1,-.1,.3,-.2,.4,-.2Zm2.3,0v0c.2,0,.3,.1,.4,.2c.1,.1,.2,.2,.2,.4c0,.1,-.1,.3,-.2,.4c-.1,.1,-.2,.2,-.4,.2c-.1,0,-.3,-.1,-.4,-.2c-.1,-.1,-.2,-.3,-.2,-.4c0,-.2,.1,-.3,.2,-.4c.1,-.1,.3,-.2,.4,-.2Zm2.3,0v0c.2,0,.3,.1,.4,.2c.1,.1,.2,.2,.2,.4c0,.1,-.1,.3,-.2,.4c-.1,.1,-.2,.2,-.4,.2c-.1,0,-.3,-.1,-.4,-.2c-.1,-.1,-.2,-.3,-.2,-.4c0,-.2,.1,-.3,.2,-.4c.1,-.1,.3,-.2,.4,-.2Zm2.3,0v0c.2,0,.3,.1,.4,.2c.1,.1,.2,.2,.2,.4c0,.1,-.1,.3,-.2,.4c-.1,.1,-.2,.2,-.4,.2c-.2,0,-.3,-.1,-.4,-.2c-.1,-.1,-.2,-.3,-.2,-.4c0,-.2,.1,-.3,.2,-.4c.1,-.1,.2,-.2,.4,-.2Zm2.3,0v0c.2,0,.3,.1,.4,.2c.1,.1,.2,.2,.2,.4c0,.2,-.1,.3,-.2,.4c-.1,.1,-.2,.2,-.4,.2c-.2,0,-.3,-.1,-.4,-.2c-.1,-.1,-.2,-.3,-.2,-.4c0,-.2,.1,-.3,.2,-.4c.1,-.1,.2,-.2,.4,-.2Zm2.3,0v0c.2,0,.3,.1,.4,.2c.1,.1,.2,.2,.2,.4c0,.2,-.1,.3,-.2,.4c-.1,.1,-.2,.2,-.4,.2c-.2,0,-.3,-.1,-.4,-.2c-.1,-.1,-.2,-.2,-.2,-.4c0,-.2,.1,-.3,.2,-.4c.1,-.1,.2,-.2,.4,-.2Zm2.3,0v0c.2,0,.3,.1,.4,.2c.1,.1,.2,.2,.2,.4c0,.2,-.1,.3,-.2,.4c-.1,.1,-.2,.2,-.4,.2c-.2,0,-.3,-.1,-.4,-.2c-.1,-.1,-.2,-.2,-.2,-.4c0,-.2,.1,-.3,.2,-.4c.1,-.1,.2,-.2,.4,-.2Zm2.3,0v0c.1,0,.3,.1,.4,.2c.1,.1,.2,.2,.2,.4c0,.2,-.1,.3,-.2,.4c-.1,.1,-.3,.2,-.4,.2c-.2,0,-.3,-.1,-.4,-.2c-.1,-.1,-.2,-.2,-.2,-.4c0,-.2,.1,-.3,.2,-.4c.1,-.1,.2,-.2,.4,-.2Zm2.3,0v0c.1,0,.3,.1,.4,.2c.1,.1,.2,.2,.2,.4c0,.2,-.1,.3,-.2,.4c-.1,.1,-.3,.2,-.4,.2c-.2,0,-.3,-.1,-.4,-.2c-.1,-.1,-.2,-.2,-.2,-.4c0,-.2,.1,-.3,.2,-.4c.1,-.1,.2,-.2,.4,-.2Zm2.3,0v0c.1,0,.3,.1,.4,.2c.1,.1,.2,.2,.2,.4c0,.2,-.1,.3,-.2,.4c-.1,.1,-.3,.2,-.4,.2c-.2,0,-.3,-.1,-.4,-.2c-.1,-.1,-.2,-.2,-.2,-.4c0,-.2,.1,-.3,.2,-.4c.1,-.1,.2,-.2,.4,-.2Zm2.3,0v0c.1,0,.3,.1,.4,.2c.1,.1,.1,.2,.1,.4c0,.2,0,.3,-.1,.4c-.1,.1,-.3,.2,-.4,.2c-.2,0,-.3,-.1,-.4,-.2c-.1,-.1,-.2,-.2,-.2,-.4c0,-.2,.1,-.3,.2,-.4c.1,-.1,.2,-.2,.4,-.2Zm2.3,0v0c.1,0,.3,.1,.4,.2c.1,.1,.1,.3,.1,.4c0,.2,0,.3,-.1,.4c-.1,.1,-.3,.2,-.4,.2c-.2,0,-.3,-.1,-.4,-.2c-.1,-.1,-.2,-.2,-.2,-.4c0,-.1,.1,-.3,.2,-.4c.1,-.1,.2,-.2,.4,-.2Zm2.3,0v0c.1,0,.3,.1,.4,.2c.1,.1,.1,.3,.1,.4c0,.2,0,.3,-.1,.4c-.1,.1,-.3,.2,-.4,.2c-.2,0,-.3,-.1,-.4,-.2c-.2,-.1,-.2,-.2,-.2,-.4c0,-.1,0,-.3,.2,-.4c.1,-.1,.2,-.2,.4,-.2Zm2.3,0v0c.1,0,.3,.1,.4,.2c.1,.1,.1,.3,.1,.4c0,.2,0,.3,-.1,.4c-.1,.1,-.3,.2,-.4,.2c-.2,0,-.3,-.1,-.4,-.2c-.2,-.1,-.2,-.2,-.2,-.4c0,-.1,0,-.3,.2,-.4c.1,-.1,.2,-.2,.4,-.2Zm2.3,0v0c.1,0,.3,.1,.4,.2c.1,.1,.1,.3,.1,.4c0,.2,0,.3,-.1,.4c-.1,.1,-.3,.2,-.4,.2c-.2,0,-.3,-.1,-.4,-.2c-.2,-.1,-.2,-.2,-.2,-.4c0,-.1,0,-.3,.2,-.4c.1,-.1,.2,-.2,.4,-.2Zm2.3,0v0c.1,0,.2,.1,.4,.2c.1,.1,.1,.3,.1,.4c0,.2,0,.3,-.1,.4c-.2,.1,-.3,.2,-.4,.2c-.2,0,-.3,-.1,-.5,-.2c-.1,-.1,-.1,-.2,-.1,-.4c0,-.1,0,-.3,.1,-.4c.2,-.1,.3,-.2,.5,-.2Zm2.2,0v0c.2,0,.3,.1,.5,.2c.1,.1,.1,.3,.1,.4c0,.2,0,.3,-.1,.4c-.2,.1,-.3,.2,-.5,.2c-.1,0,-.2,-.1,-.4,-.2c-.1,-.1,-.1,-.2,-.1,-.4c0,-.1,0,-.3,.1,-.4c.2,-.1,.3,-.2,.4,-.2Zm2.3,.1v0c.2,0,.3,0,.5,.1c.1,.1,.1,.3,.1,.4c0,.2,0,.3,-.2,.4c-.1,.1,-.2,.2,-.4,.2c-.1,0,-.2,-.1,-.4,-.2c-.1,-.1,-.1,-.2,-.1,-.4c0,-.1,0,-.3,.1,-.4c.2,-.1,.3,-.1,.4,-.1Zm2.3,0v0c.2,0,.3,0,.4,.1c.2,.1,.2,.3,.2,.4c0,.2,0,.3,-.2,.4c-.1,.1,-.2,.2,-.4,.2c-.1,0,-.3,-.1,-.4,-.2c-.1,-.1,-.1,-.2,-.1,-.4c0,-.1,0,-.3,.1,-.4c.1,-.1,.3,-.1,.4,-.1Zm2.3,0v0c.2,0,.3,0,.4,.1c.2,.1,.2,.3,.2,.4c0,.2,0,.3,-.2,.4c-.1,.1,-.2,.2,-.4,.2c-.1,0,-.3,-.1,-.4,-.2c-.1,-.1,-.1,-.2,-.1,-.4c0,-.1,0,-.3,.1,-.4c.1,-.1,.3,-.1,.4,-.1Zm2.3,0v0c.2,0,.3,0,.4,.1c.1,.1,.2,.3,.2,.4c0,.2,-.1,.3,-.2,.4c-.1,.1,-.2,.2,-.4,.2c-.1,0,-.3,-.1,-.4,-.2c-.1,-.1,-.1,-.2,-.1,-.4c0,-.1,0,-.3,.1,-.4c.1,-.1,.3,-.1,.4,-.1Zm2.3,0v0c.2,0,.3,0,.4,.1c.1,.1,.2,.3,.2,.4c0,.2,-.1,.3,-.2,.4c-.1,.2,-.2,.2,-.4,.2c-.1,0,-.3,0,-.4,-.2c-.1,-.1,-.1,-.2,-.1,-.4c0,-.1,0,-.3,.1,-.4c.1,-.1,.3,-.1,.4,-.1Zm2.3,0v0c.2,0,.3,0,.4,.1c.1,.1,.2,.3,.2,.4c0,.2,-.1,.3,-.2,.4c-.1,.2,-.2,.2,-.4,.2c-.1,0,-.3,0,-.4,-.2c-.1,-.1,-.2,-.2,-.2,-.4c0,-.1,.1,-.3,.2,-.4c.1,-.1,.3,-.1,.4,-.1Zm2.3,0v0c.2,0,.3,0,.4,.1c.1,.1,.2,.3,.2,.4c0,.2,-.1,.3,-.2,.4c-.1,.2,-.2,.2,-.4,.2c-.1,0,-.3,0,-.4,-.2c-.1,-.1,-.2,-.2,-.2,-.4c0,-.1,.1,-.3,.2,-.4c.1,-.1,.3,-.1,.4,-.1Zm2.3,0v0c.2,0,.3,0,.4,.1c.1,.1,.2,.3,.2,.4c0,.2,-.1,.3,-.2,.4c-.1,.2,-.2,.2,-.4,.2c-.1,0,-.3,0,-.4,-.2c-.1,-.1,-.2,-.2,-.2,-.4c0,-.1,.1,-.3,.2,-.4c.1,-.1,.3,-.1,.4,-.1Zm2.3,0v0c.2,0,.3,0,.4,.1c.1,.2,.2,.3,.2,.4c0,.2,-.1,.3,-.2,.4c-.1,.2,-.2,.2,-.4,.2c-.1,0,-.3,0,-.4,-.2c-.1,-.1,-.2,-.2,-.2,-.4c0,-.1,.1,-.3,.2,-.4c.1,-.1,.3,-.1,.4,-.1Zm2.3,0v0c.2,0,.3,0,.4,.1c.1,.2,.2,.3,.2,.4c0,.2,-.1,.3,-.2,.5c-.1,.1,-.2,.1,-.4,.1c-.2,0,-.3,0,-.4,-.1c-.1,-.2,-.2,-.3,-.2,-.5c0,-.1,.1,-.2,.2,-.4c.1,-.1,.2,-.1,.4,-.1Zm2.3,0v0c.2,0,.3,0,.4,.1c.1,.2,.2,.3,.2,.4c0,.2,-.1,.3,-.2,.5c-.1,.1,-.2,.1,-.4,.1c-.2,0,-.3,0,-.4,-.1c-.1,-.2,-.2,-.3,-.2,-.5c0,-.1,.1,-.2,.2,-.4c.1,-.1,.2,-.1,.4,-.1Zm2.3,0v0c.2,0,.3,0,.4,.1c.1,.2,.2,.3,.2,.5c0,.1,-.1,.2,-.2,.4c-.1,.1,-.2,.1,-.4,.1c-.2,0,-.3,0,-.4,-.1c-.1,-.2,-.2,-.3,-.2,-.5c0,-.1,.1,-.2,.2,-.4c.1,-.1,.2,-.1,.4,-.1Zm2.3,0v0c.2,0,.3,0,.4,.1c.1,.2,.2,.3,.2,.5c0,.1,-.1,.2,-.2,.4c-.1,.1,-.3,.1,-.4,.1c-.2,0,-.3,0,-.4,-.1c-.1,-.2,-.2,-.3,-.2,-.4c0,-.2,.1,-.3,.2,-.5c.1,-.1,.2,-.1,.4,-.1Zm2.3,0v0c.1,0,.3,0,.4,.2c.1,.1,.2,.2,.2,.4c0,.1,-.1,.2,-.2,.4c-.1,.1,-.3,.1,-.4,.1c-.2,0,-.3,0,-.4,-.1c-.1,-.2,-.2,-.3,-.2,-.4c0,-.2,.1,-.3,.2,-.5c.1,-.1,.2,-.1,.4,-.1Zm2.3,0v0c.1,0,.3,0,.4,.2c.1,.1,.2,.2,.2,.4c0,.1,-.1,.3,-.2,.4c-.1,.1,-.3,.1,-.4,.1c-.2,0,-.3,0,-.4,-.1c-.1,-.1,-.2,-.3,-.2,-.4c0,-.2,.1,-.3,.2,-.4c.1,-.2,.2,-.2,.4,-.2Zm2.3,0v0c.1,0,.3,0,.4,.2c.1,.1,.2,.2,.2,.4c0,.1,-.1,.3,-.2,.4c-.1,.1,-.3,.1,-.4,.1c-.2,0,-.3,0,-.4,-.1c-.1,-.1,-.2,-.3,-.2,-.4c0,-.2,.1,-.3,.2,-.4c.1,-.2,.2,-.2,.4,-.2Zm2.3,0v0c.1,0,.3,0,.4,.2c.1,.1,.1,.2,.1,.4c0,.1,0,.3,-.1,.4c-.1,.1,-.3,.1,-.4,.1c-.2,0,-.3,0,-.4,-.1c-.1,-.1,-.2,-.3,-.2,-.4c0,-.2,.1,-.3,.2,-.4c.1,-.2,.2,-.2,.4,-.2Zm2.3,0v0c.1,0,.3,0,.4,.2c.1,.1,.1,.2,.1,.4c0,.1,0,.3,-.1,.4c-.1,.1,-.3,.1,-.4,.1c-.2,0,-.3,0,-.4,-.1c-.1,-.1,-.2,-.3,-.2,-.4c0,-.2,.1,-.3,.2,-.4c.1,-.2,.2,-.2,.4,-.2Zm2.3,0v0c.1,0,.3,.1,.4,.2c.1,.1,.1,.2,.1,.4c0,.1,0,.3,-.1,.4c-.1,.1,-.3,.1,-.4,.1c-.2,0,-.3,0,-.4,-.1c-.2,-.1,-.2,-.3,-.2,-.4c0,-.2,0,-.3,.2,-.4c.1,-.2,.2,-.2,.4,-.2Zm2.3,0v0c.1,0,.3,.1,.4,.2c.1,.1,.1,.2,.1,.4c0,.1,0,.3,-.1,.4c-.1,.1,-.3,.1,-.4,.1c-.2,0,-.3,0,-.4,-.1c-.2,-.1,-.2,-.3,-.2,-.4c0,-.2,0,-.3,.2,-.4c.1,-.1,.2,-.2,.4,-.2Zm2.3,0v0c.1,0,.3,.1,.4,.2c.1,.1,.1,.2,.1,.4c0,.1,0,.3,-.1,.4c-.2,.1,-.3,.1,-.4,.1c-.2,0,-.3,0,-.4,-.1c-.2,-.1,-.2,-.3,-.2,-.4c0,-.2,0,-.3,.2,-.4c.1,-.1,.2,-.2,.4,-.2Zm2.3,0v0c.1,0,.2,.1,.4,.2c.1,.1,.1,.2,.1,.4c0,.1,0,.3,-.1,.4c-.2,.1,-.3,.1,-.4,.1c-.2,0,-.3,0,-.5,-.1c-.1,-.1,-.1,-.3,-.1,-.4c0,-.2,0,-.3,.1,-.4c.2,-.1,.3,-.2,.5,-.2Zm2.2,0v0c.2,0,.3,.1,.5,.2c.1,.1,.1,.2,.1,.4c0,.1,0,.3,-.1,.4c-.2,.1,-.3,.2,-.5,.2c-.1,0,-.2,-.1,-.4,-.2c-.1,-.1,-.1,-.3,-.1,-.4c0,-.2,0,-.3,.1,-.4c.2,-.1,.3,-.2,.4,-.2Zm2.3,0v0c.2,0,.3,.1,.4,.2c.2,.1,.2,.2,.2,.4c0,.1,0,.3,-.2,.4c-.1,.1,-.2,.2,-.4,.2c-.1,0,-.3,-.1,-.4,-.2c-.1,-.1,-.1,-.3,-.1,-.4c0,-.2,0,-.3,.1,-.4c.2,-.1,.3,-.2,.4,-.2Zm2.3,0v0c.2,0,.3,.1,.4,.2c.2,.1,.2,.2,.2,.4c0,.1,0,.3,-.2,.4c-.1,.1,-.2,.2,-.4,.2c-.1,0,-.3,-.1,-.4,-.2c-.1,-.1,-.1,-.3,-.1,-.4c0,-.2,0,-.3,.1,-.4c.1,-.1,.3,-.2,.4,-.2Zm2.3,0v0c.2,0,.3,.1,.4,.2c.2,.1,.2,.2,.2,.4c0,.1,0,.3,-.2,.4c-.1,.1,-.2,.2,-.4,.2c-.1,0,-.3,-.1,-.4,-.2c-.1,-.1,-.1,-.3,-.1,-.4c0,-.2,0,-.3,.1,-.4c.1,-.1,.3,-.2,.4,-.2Zm2.3,0v0c.2,0,.3,.1,.4,.2c.1,.1,.2,.2,.2,.4c0,.1,-.1,.3,-.2,.4c-.1,.1,-.2,.2,-.4,.2c-.1,0,-.3,-.1,-.4,-.2c-.1,-.1,-.1,-.3,-.1,-.4c0,-.2,0,-.3,.1,-.4c.1,-.1,.3,-.2,.4,-.2Zm2.3,0v0c.2,0,.3,.1,.4,.2c.1,.1,.2,.2,.2,.4c0,.1,-.1,.3,-.2,.4c-.1,.1,-.2,.2,-.4,.2c-.1,0,-.3,-.1,-.4,-.2c-.1,-.1,-.1,-.3,-.1,-.4c0,-.2,0,-.3,.1,-.4c.1,-.1,.3,-.2,.4,-.2Zm2.3,0v0c.2,0,.3,.1,.4,.2c.1,.1,.2,.2,.2,.4c0,.2,-.1,.3,-.2,.4c-.1,.1,-.2,.2,-.4,.2c-.1,0,-.3,-.1,-.4,-.2c-.1,-.1,-.2,-.3,-.2,-.4c0,-.2,.1,-.3,.2,-.4c.1,-.1,.3,-.2,.4,-.2Zm2.3,0v0c.2,0,.3,.1,.4,.2c.1,.1,.2,.2,.2,.4c0,.2,-.1,.3,-.2,.4c-.1,.1,-.2,.2,-.4,.2c-.1,0,-.3,-.1,-.4,-.2c-.1,-.1,-.2,-.2,-.2,-.4c0,-.2,.1,-.3,.2,-.4c.1,-.1,.3,-.2,.4,-.2Zm2.3,0v0c.2,0,.3,.1,.4,.2c.1,.1,.2,.2,.2,.4c0,.2,-.1,.3,-.2,.4c-.1,.1,-.2,.2,-.4,.2c-.1,0,-.3,-.1,-.4,-.2c-.1,-.1,-.2,-.2,-.2,-.4c0,-.2,.1,-.3,.2,-.4c.1,-.1,.3,-.2,.4,-.2Zm2.3,0v0c.2,0,.3,.1,.4,.2c.1,.1,.2,.2,.2,.4c0,.2,-.1,.3,-.2,.4c-.1,.1,-.2,.2,-.4,.2c-.2,0,-.3,-.1,-.4,-.2c-.1,-.1,-.2,-.2,-.2,-.4c0,-.2,.1,-.3,.2,-.4c.1,-.1,.3,-.2,.4,-.2Zm2.3,0v0c.2,0,.3,.1,.4,.2c.1,.1,.2,.2,.2,.4c0,.2,-.1,.3,-.2,.4c-.1,.1,-.2,.2,-.4,.2c-.2,0,-.3,-.1,-.4,-.2c-.1,-.1,-.2,-.2,-.2,-.4c0,-.2,.1,-.3,.2,-.4c.1,-.1,.2,-.2,.4,-.2Zm2.3,0v0c.2,0,.3,.1,.4,.2c.1,.1,.2,.2,.2,.4c0,.2,-.1,.3,-.2,.4c-.1,.1,-.2,.2,-.4,.2c-.2,0,-.3,-.1,-.4,-.2c-.1,-.1,-.2,-.2,-.2,-.4c0,-.2,.1,-.3,.2,-.4c.1,-.1,.2,-.2,.4,-.2Zm2.3,0v0c.2,0,.3,.1,.4,.2c.1,.1,.2,.2,.2,.4c0,.2,-.1,.3,-.2,.4c-.1,.1,-.2,.2,-.4,.2c-.2,0,-.3,-.1,-.4,-.2c-.1,-.1,-.2,-.2,-.2,-.4c0,-.2,.1,-.3,.2,-.4c.1,-.1,.2,-.2,.4,-.2Zm2.3,0v0c.1,0,.3,.1,.4,.2c.1,.1,.2,.3,.2,.4c0,.2,-.1,.3,-.2,.4c-.1,.1,-.3,.2,-.4,.2c-.2,0,-.3,-.1,-.4,-.2c-.1,-.1,-.2,-.2,-.2,-.4c0,-.2,.1,-.3,.2,-.4c.1,-.1,.2,-.2,.4,-.2Zm2.3,0v0c.1,0,.3,.1,.4,.2c.1,.1,.2,.3,.2,.4c0,.2,-.1,.3,-.2,.4c-.1,.1,-.3,.2,-.4,.2c-.2,0,-.3,-.1,-.4,-.2c-.1,-.1,-.2,-.2,-.2,-.4c0,-.1,.1,-.3,.2,-.4c.1,-.1,.2,-.2,.4,-.2Zm2.3,0v0c.1,0,.3,.1,.4,.2c.1,.1,.2,.3,.2,.4c0,.2,-.1,.3,-.2,.4c-.1,.1,-.3,.2,-.4,.2c-.2,0,-.3,-.1,-.4,-.2c-.1,-.1,-.2,-.2,-.2,-.4c0,-.1,.1,-.3,.2,-.4c.1,-.1,.2,-.2,.4,-.2Zm2.3,0v0c.1,0,.3,.1,.4,.2c.1,.1,.2,.3,.2,.4c0,.2,-.1,.3,-.2,.4c-.1,.1,-.3,.2,-.4,.2c-.2,0,-.3,-.1,-.4,-.2c-.1,-.1,-.2,-.2,-.2,-.4c0,-.1,.1,-.3,.2,-.4c.1,-.1,.2,-.2,.4,-.2Zm2.3,0v0c.1,0,.3,.1,.4,.2c.1,.1,.1,.3,.1,.4c0,.2,0,.3,-.1,.4c-.1,.1,-.3,.2,-.4,.2c-.2,0,-.3,-.1,-.4,-.2c-.1,-.1,-.2,-.2,-.2,-.4c0,-.1,.1,-.3,.2,-.4c.1,-.1,.2,-.2,.4,-.2Zm2.3,0v0c.1,0,.3,.1,.4,.2c.1,.1,.1,.3,.1,.4c0,.2,0,.3,-.1,.4c-.1,.1,-.3,.2,-.4,.2c-.2,0,-.3,-.1,-.4,-.2c-.1,-.1,-.2,-.2,-.2,-.4c0,-.1,.1,-.3,.2,-.4c.1,-.1,.2,-.2,.4,-.2Zm2.3,0v0c.1,.1,.3,.1,.4,.2c.1,.1,.1,.3,.1,.4c0,.2,0,.3,-.1,.4c-.1,.1,-.3,.2,-.4,.2c-.2,0,-.3,-.1,-.4,-.2c-.2,-.1,-.2,-.2,-.2,-.4c0,-.1,0,-.3,.2,-.4c.1,-.1,.2,-.2,.4,-.2Zm2.3,.1v0c.1,0,.3,0,.4,.1c.1,.1,.1,.3,.1,.4c0,.2,0,.3,-.1,.4c-.1,.1,-.3,.2,-.4,.2c-.2,0,-.3,-.1,-.4,-.2c-.2,-.1,-.2,-.2,-.2,-.4c0,-.1,0,-.3,.2,-.4c.1,-.1,.2,-.1,.4,-.1Zm2.3,0v0c.1,0,.2,0,.4,.1c.1,.1,.1,.3,.1,.4c0,.2,0,.3,-.1,.4c-.2,.1,-.3,.2,-.4,.2c-.2,0,-.3,-.1,-.5,-.2c-.1,-.1,-.1,-.2,-.1,-.4c0,-.1,0,-.3,.1,-.4c.2,-.1,.3,-.1,.5,-.1Zm2.3,0v0c.1,0,.2,0,.4,.1c.1,.1,.1,.3,.1,.4c0,.2,0,.3,-.1,.4c-.2,.1,-.3,.2,-.4,.2c-.2,0,-.3,-.1,-.5,-.2c-.1,-.1,-.1,-.2,-.1,-.4c0,-.1,0,-.3,.1,-.4c.2,-.1,.3,-.1,.5,-.1Zm2.2,0v0c.2,0,.3,0,.5,.1c.1,.1,.1,.3,.1,.4c0,.2,0,.3,-.1,.4c-.2,.2,-.3,.2,-.5,.2c-.1,0,-.2,0,-.4,-.2c-.1,-.1,-.1,-.2,-.1,-.4c0,-.1,0,-.3,.1,-.4c.2,-.1,.3,-.1,.4,-.1Zm2.3,0v0c.2,0,.3,0,.4,.1c.2,.1,.2,.3,.2,.4c0,.2,0,.3,-.2,.4c-.1,.2,-.2,.2,-.4,.2c-.1,0,-.3,0,-.4,-.2c-.1,-.1,-.1,-.2,-.1,-.4c0,-.1,0,-.3,.1,-.4c.1,-.1,.3,-.1,.4,-.1Zm2.3,0v0c.2,0,.3,0,.4,.1c.2,.1,.2,.3,.2,.4c0,.2,0,.3,-.2,.4c-.1,.2,-.2,.2,-.4,.2c-.1,0,-.3,0,-.4,-.2c-.1,-.1,-.1,-.2,-.1,-.4c0,-.1,0,-.3,.1,-.4c.1,-.1,.3,-.1,.4,-.1Zm2.3,0v0c.2,0,.3,0,.4,.1c.2,.1,.2,.3,.2,.4c0,.2,0,.3,-.2,.4c-.1,.2,-.2,.2,-.4,.2c-.1,0,-.3,0,-.4,-.2c-.1,-.1,-.1,-.2,-.1,-.4c0,-.1,0,-.3,.1,-.4c.1,-.1,.3,-.1,.4,-.1Zm2.3,0v0c.2,0,.3,0,.4,.1c.1,.1,.2,.3,.2,.4c0,.2,-.1,.3,-.2,.4c-.1,.2,-.2,.2,-.4,.2c-.1,0,-.3,0,-.4,-.2c-.1,-.1,-.1,-.2,-.1,-.4c0,-.1,0,-.3,.1,-.4c.1,-.1,.3,-.1,.4,-.1Zm2.3,0v0c.2,0,.3,0,.4,.1c.1,.2,.2,.3,.2,.4c0,.2,-.1,.3,-.2,.5c-.1,.1,-.2,.1,-.4,.1c-.1,0,-.3,0,-.4,-.1c-.1,-.2,-.1,-.3,-.1,-.5c0,-.1,0,-.2,.1,-.4c.1,-.1,.3,-.1,.4,-.1Zm2.3,0v0c.2,0,.3,0,.4,.1c.1,.2,.2,.3,.2,.4c0,.2,-.1,.3,-.2,.5c-.1,.1,-.2,.1,-.4,.1c-.1,0,-.3,0,-.4,-.1c-.1,-.2,-.2,-.3,-.2,-.5c0,-.1,.1,-.2,.2,-.4c.1,-.1,.3,-.1,.4,-.1Zm2.3,0v0c.2,0,.3,0,.4,.1c.1,.2,.2,.3,.2,.5c0,.1,-.1,.2,-.2,.4c-.1,.1,-.2,.1,-.4,.1c-.1,0,-.3,0,-.4,-.1c-.1,-.2,-.2,-.3,-.2,-.5c0,-.1,.1,-.2,.2,-.4c.1,-.1,.3,-.1,.4,-.1Zm2.3,0v0c.2,0,.3,0,.4,.1c.1,.2,.2,.3,.2,.5c0,.1,-.1,.2,-.2,.4c-.1,.1,-.2,.1,-.4,.1c-.1,0,-.3,0,-.4,-.1c-.1,-.2,-.2,-.3,-.2,-.4c0,-.2,.1,-.3,.2,-.5c.1,-.1,.3,-.1,.4,-.1Zm2.3,0v0c.2,0,.3,0,.4,.1c.1,.2,.2,.3,.2,.5c0,.1,-.1,.2,-.2,.4c-.1,.1,-.2,.1,-.4,.1c-.2,0,-.3,0,-.4,-.1c-.1,-.2,-.2,-.3,-.2,-.4c0,-.2,.1,-.3,.2,-.5c.1,-.1,.2,-.1,.4,-.1Zm2.3,0v0c.2,0,.3,0,.4,.2c.1,.1,.2,.2,.2,.4c0,.1,-.1,.3,-.2,.4c-.1,.1,-.2,.1,-.4,.1c-.2,0,-.3,0,-.4,-.1c-.1,-.1,-.2,-.3,-.2,-.4c0,-.2,.1,-.3,.2,-.4c.1,-.2,.2,-.2,.4,-.2Zm2.3,0v0c.2,0,.3,0,.4,.2c.1,.1,.2,.2,.2,.4c0,.1,-.1,.3,-.2,.4c-.1,.1,-.2,.1,-.4,.1c-.2,0,-.3,0,-.4,-.1c-.1,-.1,-.2,-.3,-.2,-.4c0,-.2,.1,-.3,.2,-.4c.1,-.2,.2,-.2,.4,-.2Zm2.3,0v0c.2,0,.3,0,.4,.2c.1,.1,.2,.2,.2,.4c0,.1,-.1,.3,-.2,.4c-.1,.1,-.2,.1,-.4,.1c-.2,0,-.3,0,-.4,-.1c-.1,-.1,-.2,-.3,-.2,-.4c0,-.2,.1,-.3,.2,-.4c.1,-.2,.2,-.2,.4,-.2Zm2.3,0v0c.1,0,.3,0,.4,.2c.1,.1,.2,.2,.2,.4c0,.1,-.1,.3,-.2,.4c-.1,.1,-.3,.1,-.4,.1c-.2,0,-.3,0,-.4,-.1c-.1,-.1,-.2,-.3,-.2,-.4c0,-.2,.1,-.3,.2,-.4c.1,-.2,.2,-.2,.4,-.2Zm2.3,0v0c.1,0,.3,0,.4,.2c.1,.1,.2,.2,.2,.4c0,.1,-.1,.3,-.2,.4c-.1,.1,-.3,.1,-.4,.1c-.2,0,-.3,0,-.4,-.1c-.1,-.1,-.2,-.3,-.2,-.4c0,-.2,.1,-.3,.2,-.4c.1,-.2,.2,-.2,.4,-.2Zm2.3,0v0c.1,0,.3,.1,.4,.2c.1,.1,.2,.2,.2,.4c0,.1,-.1,.3,-.2,.4c-.1,.1,-.3,.1,-.4,.1c-.2,0,-.3,0,-.4,-.1c-.1,-.1,-.2,-.3,-.2,-.4c0,-.2,.1,-.3,.2,-.4c.1,-.1,.2,-.2,.4,-.2Zm2.3,0v0c.1,0,.3,.1,.4,.2c.1,.1,.2,.2,.2,.4c-.1,.1,-.1,.3,-.2,.4c-.1,.1,-.3,.1,-.4,.1c-.2,0,-.3,0,-.4,-.1c-.1,-.1,-.2,-.3,-.2,-.4c0,-.2,.1,-.3,.2,-.4c.1,-.1,.2,-.2,.4,-.2Zm2.3,0v0c.1,0,.3,.1,.4,.2c.1,.1,.1,.2,.1,.4c0,.1,0,.3,-.1,.4c-.1,.1,-.3,.1,-.4,.1c-.2,0,-.3,0,-.4,-.1c-.1,-.1,-.2,-.3,-.2,-.4c0,-.2,.1,-.3,.2,-.4c.1,-.1,.2,-.2,.4,-.2Zm2.3,0v0c.1,0,.3,.1,.4,.2c.1,.1,.1,.2,.1,.4c0,.1,0,.3,-.1,.4c-.1,.1,-.3,.2,-.4,.2c-.2,-.1,-.3,-.1,-.4,-.2c-.2,-.1,-.2,-.3,-.2,-.4c0,-.2,0,-.3,.2,-.4c.1,-.1,.2,-.2,.4,-.2Zm2.3,0v0c.1,0,.3,.1,.4,.2c.1,.1,.1,.2,.1,.4c0,.1,0,.3,-.1,.4c-.1,.1,-.3,.2,-.4,.2c-.2,0,-.3,-.1,-.4,-.2c-.2,-.1,-.2,-.3,-.2,-.4c0,-.2,0,-.3,.2,-.4c.1,-.1,.2,-.2,.4,-.2Zm2.3,0v0c.1,0,.3,.1,.4,.2c.1,.1,.1,.2,.1,.4c0,.1,0,.3,-.1,.4c-.1,.1,-.3,.2,-.4,.2c-.2,0,-.3,-.1,-.4,-.2c-.2,-.1,-.2,-.3,-.2,-.4c0,-.2,0,-.3,.2,-.4c.1,-.1,.2,-.2,.4,-.2Zm2.3,0v0c.1,0,.2,.1,.4,.2c.1,.1,.1,.2,.1,.4c0,.1,0,.3,-.1,.4c-.2,.1,-.3,.2,-.4,.2c-.2,0,-.3,-.1,-.5,-.2c-.1,-.1,-.1,-.3,-.1,-.4c0,-.2,0,-.3,.1,-.4c.2,-.1,.3,-.2,.5,-.2Zm2.3,0v0c.1,0,.2,.1,.4,.2c.1,.1,.1,.2,.1,.4c0,.1,0,.3,-.1,.4c-.2,.1,-.3,.2,-.5,.2c-.1,0,-.2,-.1,-.4,-.2c-.1,-.1,-.1,-.3,-.1,-.4c0,-.2,0,-.3,.1,-.4c.2,-.1,.3,-.2,.5,-.2Zm2.2,0v0c.2,0,.3,.1,.5,.2c.1,.1,.1,.2,.1,.4c0,.1,0,.3,-.1,.4c-.2,.1,-.3,.2,-.5,.2c-.1,0,-.2,-.1,-.4,-.2c-.1,-.1,-.1,-.3,-.1,-.4c0,-.2,0,-.3,.1,-.4c.2,-.1,.3,-.2,.4,-.2Zm2.3,0v0c.2,0,.3,.1,.4,.2c.2,.1,.2,.2,.2,.4c0,.2,0,.3,-.2,.4c-.1,.1,-.2,.2,-.4,.2c-.1,0,-.3,-.1,-.4,-.2c-.1,-.1,-.1,-.3,-.1,-.4c0,-.2,0,-.3,.1,-.4c.1,-.1,.3,-.2,.4,-.2Zm2.3,0v0c.2,0,.3,.1,.4,.2c.2,.1,.2,.2,.2,.4c0,.2,0,.3,-.2,.4c-.1,.1,-.2,.2,-.4,.2c-.1,0,-.3,-.1,-.4,-.2c-.1,-.1,-.1,-.2,-.1,-.4c0,-.2,0,-.3,.1,-.4c.1,-.1,.3,-.2,.4,-.2Zm2.3,0v0c.2,0,.3,.1,.4,.2c.2,.1,.2,.2,.2,.4c0,.2,-.1,.3,-.2,.4c-.1,.1,-.2,.2,-.4,.2c-.1,0,-.3,-.1,-.4,-.2c-.1,-.1,-.1,-.2,-.1,-.4c0,-.2,0,-.3,.1,-.4c.1,-.1,.3,-.2,.4,-.2Zm2.3,0v0c.2,0,.3,.1,.4,.2c.1,.1,.2,.2,.2,.4c0,.2,-.1,.3,-.2,.4c-.1,.1,-.2,.2,-.4,.2c-.1,0,-.3,-.1,-.4,-.2c-.1,-.1,-.1,-.2,-.1,-.4c0,-.2,0,-.3,.1,-.4c.1,-.1,.3,-.2,.4,-.2Zm2.3,0v0c.2,0,.3,.1,.4,.2c.1,.1,.2,.2,.2,.4c0,.2,-.1,.3,-.2,.4c-.1,.1,-.2,.2,-.4,.2c-.1,0,-.3,-.1,-.4,-.2c-.1,-.1,-.2,-.2,-.2,-.4c0,-.2,.1,-.3,.2,-.4c.1,-.1,.3,-.2,.4,-.2Zm2.3,0v0c.2,0,.3,.1,.4,.2c.1,.1,.2,.2,.2,.4c0,.2,-.1,.3,-.2,.4c-.1,.1,-.2,.2,-.4,.2c-.1,0,-.3,-.1,-.4,-.2c-.1,-.1,-.2,-.2,-.2,-.4c0,-.2,.1,-.3,.2,-.4c.1,-.1,.3,-.2,.4,-.2Zm2.3,0v0c.2,0,.3,.1,.4,.2c.1,.1,.2,.2,.2,.4c0,.2,-.1,.3,-.2,.4c-.1,.1,-.2,.2,-.4,.2c-.1,0,-.3,-.1,-.4,-.2c-.1,-.1,-.2,-.2,-.2,-.4c0,-.2,.1,-.3,.2,-.4c.1,-.1,.3,-.2,.4,-.2Zm2.3,0v0c.2,0,.3,.1,.4,.2c.1,.1,.2,.3,.2,.4c0,.2,-.1,.3,-.2,.4c-.1,.1,-.2,.2,-.4,.2c-.1,0,-.3,-.1,-.4,-.2c-.1,-.1,-.2,-.2,-.2,-.4c0,-.2,.1,-.3,.2,-.4c.1,-.1,.3,-.2,.4,-.2Zm2.3,0v0c.2,0,.3,.1,.4,.2c.1,.1,.2,.3,.2,.4c0,.2,-.1,.3,-.2,.4c-.1,.1,-.2,.2,-.4,.2c-.2,0,-.3,-.1,-.4,-.2c-.1,-.1,-.2,-.2,-.2,-.4c0,-.1,.1,-.3,.2,-.4c.1,-.1,.2,-.2,.4,-.2Zm2.3,0v0c.2,0,.3,.1,.4,.2c.1,.1,.2,.3,.2,.4c0,.2,-.1,.3,-.2,.4c-.1,.1,-.2,.2,-.4,.2c-.2,0,-.3,-.1,-.4,-.2c-.1,-.1,-.2,-.2,-.2,-.4c0,-.1,.1,-.3,.2,-.4c.1,-.1,.2,-.2,.4,-.2Zm2.3,0v0c.2,0,.3,.1,.4,.2c.1,.1,.2,.3,.2,.4c0,.2,-.1,.3,-.2,.4c-.1,.1,-.2,.2,-.4,.2c-.2,0,-.3,-.1,-.4,-.2c-.1,-.1,-.2,-.2,-.2,-.4c0,-.1,.1,-.3,.2,-.4c.1,-.1,.2,-.2,.4,-.2Zm2.3,0v0c.2,0,.3,.1,.4,.2c.1,.1,.2,.3,.2,.4c0,.2,-.1,.3,-.2,.4c-.1,.1,-.2,.2,-.4,.2c-.2,0,-.3,-.1,-.4,-.2c-.1,-.1,-.2,-.2,-.2,-.4c0,-.1,.1,-.3,.2,-.4c.1,-.1,.2,-.2,.4,-.2Zm2.3,0v0c.1,0,.3,.1,.4,.2c.1,.1,.2,.3,.2,.4c0,.2,-.1,.3,-.2,.4c-.1,.1,-.3,.2,-.4,.2c-.2,0,-.3,-.1,-.4,-.2c-.1,-.1,-.2,-.2,-.2,-.4c0,-.1,.1,-.3,.2,-.4c.1,-.1,.2,-.2,.4,-.2Zm2.3,0v0c.1,0,.3,.1,.4,.2c.1,.1,.2,.3,.2,.4c0,.2,-.1,.3,-.2,.4c-.1,.1,-.3,.2,-.4,.2c-.2,0,-.3,-.1,-.4,-.2c-.1,-.1,-.2,-.2,-.2,-.4c0,-.1,.1,-.3,.2,-.4c.1,-.1,.2,-.2,.4,-.2Zm2.3,.1v0c.1,0,.3,0,.4,.1c.1,.1,.2,.3,.2,.4c0,.2,-.1,.3,-.2,.4c-.1,.1,-.3,.2,-.4,.2c-.2,0,-.3,-.1,-.4,-.2c-.1,-.1,-.2,-.2,-.2,-.4c0,-.1,.1,-.3,.2,-.4c.1,-.1,.2,-.1,.4,-.1Zm2.3,0v0c.1,0,.3,0,.4,.1c.1,.1,.1,.3,.1,.4c0,.2,0,.3,-.1,.4c-.1,.1,-.3,.2,-.4,.2c-.2,0,-.3,-.1,-.4,-.2c-.1,-.1,-.2,-.2,-.2,-.4c0,-.1,.1,-.3,.2,-.4c.1,-.1,.2,-.1,.4,-.1Zm2.3,0v0c.1,0,.3,0,.4,.1c.1,.1,.1,.3,.1,.4c0,.2,0,.3,-.1,.4c-.1,.1,-.3,.2,-.4,.2c-.2,0,-.3,-.1,-.4,-.2c-.1,-.1,-.2,-.2,-.2,-.4c0,-.1,.1,-.3,.2,-.4c.1,-.1,.2,-.1,.4,-.1Zm2.3,0v0c.1,0,.3,0,.4,.1c.1,.1,.1,.3,.1,.4c0,.2,0,.3,-.1,.4c-.1,.2,-.3,.2,-.4,.2c-.2,0,-.3,-.1,-.4,-.2c-.2,-.1,-.2,-.2,-.2,-.4c0,-.1,0,-.3,.2,-.4c.1,-.1,.2,-.1,.4,-.1Zm2.3,0v0c.1,0,.3,0,.4,.1c.1,.1,.1,.3,.1,.4c0,.2,0,.3,-.1,.4c-.1,.2,-.3,.2,-.4,.2c-.2,0,-.3,0,-.4,-.2c-.2,-.1,-.2,-.2,-.2,-.4c0,-.1,0,-.3,.2,-.4c.1,-.1,.2,-.1,.4,-.1Zm2.3,0v0c.1,0,.3,0,.4,.1c.1,.1,.1,.3,.1,.4c0,.2,0,.3,-.1,.4c-.1,.2,-.3,.2,-.4,.2c-.2,0,-.3,0,-.4,-.2c-.2,-.1,-.2,-.2,-.2,-.4c0,-.1,0,-.3,.2,-.4c.1,-.1,.2,-.1,.4,-.1Zm2.3,0v0c.1,0,.2,0,.4,.1c.1,.1,.1,.3,.1,.4c0,.2,0,.3,-.1,.4c-.2,.2,-.3,.2,-.4,.2c-.2,0,-.3,0,-.5,-.2c-.1,-.1,-.1,-.2,-.1,-.4c0,-.1,0,-.3,.1,-.4c.2,-.1,.3,-.1,.5,-.1Zm2.2,0v0c.2,0,.3,0,.5,.1c.1,.1,.1,.3,.1,.4c0,.2,0,.3,-.1,.4c-.2,.2,-.3,.2,-.5,.2c-.1,0,-.2,0,-.4,-.2c-.1,-.1,-.1,-.2,-.1,-.4c0,-.1,0,-.3,.1,-.4c.2,-.1,.3,-.1,.4,-.1Zm2.3,0v0c.2,0,.3,0,.5,.1c.1,.2,.1,.3,.1,.4c0,.2,0,.3,-.2,.5c-.1,.1,-.2,.1,-.4,.1c-.1,0,-.3,0,-.4,-.2c-.1,-.1,-.1,-.2,-.1,-.4c0,-.1,0,-.2,.1,-.4c.2,-.1,.3,-.1,.4,-.1Zm2.3,0v0c.2,0,.3,0,.4,.1c.2,.2,.2,.3,.2,.4c0,.2,0,.3,-.2,.5c-.1,.1,-.2,.1,-.4,.1c-.1,0,-.3,0,-.4,-.1c-.1,-.2,-.1,-.3,-.1,-.5c0,-.1,0,-.2,.1,-.4c.1,-.1,.3,-.1,.4,-.1Zm2.3,0v0c.2,0,.3,0,.4,.1c.2,.2,.2,.3,.2,.5c0,.1,0,.2,-.2,.4c-.1,.1,-.2,.1,-.4,.1c-.1,0,-.3,0,-.4,-.1c-.1,-.2,-.1,-.3,-.1,-.5c0,-.1,0,-.2,.1,-.4c.1,-.1,.3,-.1,.4,-.1Zm2.3,0v0c.2,0,.3,0,.4,.1c.1,.2,.2,.3,.2,.5c0,.1,-.1,.2,-.2,.4c-.1,.1,-.2,.1,-.4,.1c-.1,0,-.3,0,-.4,-.1c-.1,-.2,-.1,-.3,-.1,-.4c0,-.2,0,-.3,.1,-.5c.1,-.1,.3,-.1,.4,-.1Zm2.3,0v0c.2,0,.3,0,.4,.1c.1,.2,.2,.3,.2,.5c0,.1,-.1,.2,-.2,.4c-.1,.1,-.2,.1,-.4,.1c-.1,0,-.3,0,-.4,-.1c-.1,-.2,-.1,-.3,-.1,-.4c0,-.2,0,-.3,.1,-.5c.1,-.1,.3,-.1,.4,-.1Zm2.3,0v0c.2,0,.3,0,.4,.2c.1,.1,.2,.2,.2,.4c0,.1,-.1,.3,-.2,.4c-.1,.1,-.2,.1,-.4,.1c-.1,0,-.3,0,-.4,-.1c-.1,-.2,-.2,-.3,-.2,-.4c0,-.2,.1,-.3,.2,-.4c.1,-.2,.3,-.2,.4,-.2Zm2.3,0v0c.2,0,.3,0,.4,.2c.1,.1,.2,.2,.2,.4c0,.1,-.1,.3,-.2,.4c-.1,.1,-.2,.1,-.4,.1c-.1,0,-.3,0,-.4,-.1c-.1,-.1,-.2,-.3,-.2,-.4c0,-.2,.1,-.3,.2,-.4c.1,-.2,.3,-.2,.4,-.2Zm2.3,0v0c.2,0,.3,0,.4,.2c.1,.1,.2,.2,.2,.4c0,.1,-.1,.3,-.2,.4c-.1,.1,-.2,.1,-.4,.1c-.1,0,-.3,0,-.4,-.1c-.1,-.1,-.2,-.3,-.2,-.4c0,-.2,.1,-.3,.2,-.4c.1,-.2,.3,-.2,.4,-.2Zm2.3,0v0c.2,0,.3,0,.4,.2c.1,.1,.2,.2,.2,.4c0,.1,-.1,.3,-.2,.4c-.1,.1,-.2,.1,-.4,.1c-.2,0,-.3,0,-.4,-.1c-.1,-.1,-.2,-.3,-.2,-.4c0,-.2,.1,-.3,.2,-.4c.1,-.2,.3,-.2,.4,-.2Zm2.3,0v0c.2,0,.3,0,.4,.2c.1,.1,.2,.2,.2,.4c0,.1,-.1,.3,-.2,.4c-.1,.1,-.2,.1,-.4,.1c-.2,0,-.3,0,-.4,-.1c-.1,-.1,-.2,-.3,-.2,-.4c0,-.2,.1,-.3,.2,-.4c.1,-.2,.2,-.2,.4,-.2Zm2.3,0v0c.2,0,.3,.1,.4,.2c.1,.1,.2,.2,.2,.4c0,.1,-.1,.3,-.2,.4c-.1,.1,-.2,.1,-.4,.1c-.2,0,-.3,0,-.4,-.1c-.1,-.1,-.2,-.3,-.2,-.4c0,-.2,.1,-.3,.2,-.4c.1,-.1,.2,-.2,.4,-.2Zm2.3,0v0c.2,0,.3,.1,.4,.2c.1,.1,.2,.2,.2,.4c0,.1,-.1,.3,-.2,.4c-.1,.1,-.2,.1,-.4,.1c-.2,0,-.3,0,-.4,-.1c-.1,-.1,-.2,-.3,-.2,-.4c0,-.2,.1,-.3,.2,-.4c.1,-.1,.2,-.2,.4,-.2Zm2.3,0v0c.2,0,.3,.1,.4,.2c.1,.1,.2,.2,.2,.4c0,.1,-.1,.3,-.2,.4c-.1,.1,-.3,.1,-.4,.1c-.2,0,-.3,0,-.4,-.1c-.1,-.1,-.2,-.3,-.2,-.4c0,-.2,.1,-.3,.2,-.4c.1,-.1,.2,-.2,.4,-.2Zm2.3,0v0c.1,0,.3,.1,.4,.2c.1,.1,.2,.2,.2,.4c0,.1,-.1,.3,-.2,.4c-.1,.1,-.3,.1,-.4,.1c-.2,0,-.3,0,-.4,-.1c-.1,-.1,-.2,-.3,-.2,-.4c0,-.2,.1,-.3,.2,-.4c.1,-.1,.2,-.2,.4,-.2Zm2.3,0v0c.1,0,.3,.1,.4,.2c.1,.1,.2,.2,.2,.4c0,.1,-.1,.3,-.2,.4c-.1,.1,-.3,.2,-.4,.2c-.2,0,-.3,-.1,-.4,-.2c-.1,-.1,-.2,-.3,-.2,-.4c0,-.2,.1,-.3,.2,-.4c.1,-.1,.2,-.2,.4,-.2Zm2.3,0v0c.1,0,.3,.1,.4,.2c.1,.1,.2,.2,.2,.4c0,.1,-.1,.3,-.2,.4c-.1,.1,-.3,.2,-.4,.2c-.2,0,-.3,-.1,-.4,-.2c-.1,-.1,-.2,-.3,-.2,-.4c0,-.2,.1,-.3,.2,-.4c.1,-.1,.2,-.2,.4,-.2Zm2.3,0v0c.1,0,.3,.1,.4,.2c.1,.1,.1,.2,.1,.4c0,.1,0,.3,-.1,.4c-.1,.1,-.3,.2,-.4,.2c-.2,0,-.3,-.1,-.4,-.2c-.1,-.1,-.2,-.3,-.2,-.4c0,-.2,.1,-.3,.2,-.4c.1,-.1,.2,-.2,.4,-.2Zm2.3,0v0c.1,0,.3,.1,.4,.2c.1,.1,.1,.2,.1,.4c0,.1,0,.3,-.1,.4c-.1,.1,-.3,.2,-.4,.2c-.2,0,-.3,-.1,-.4,-.2c-.1,-.1,-.2,-.3,-.2,-.4c0,-.2,.1,-.3,.2,-.4c.1,-.1,.2,-.2,.4,-.2Zm2.3,0v0c.1,0,.3,.1,.4,.2c.1,.1,.1,.2,.1,.4c0,.1,0,.3,-.1,.4c-.1,.1,-.3,.2,-.4,.2c-.2,0,-.3,-.1,-.4,-.2c-.2,-.1,-.2,-.3,-.2,-.4c0,-.2,0,-.3,.2,-.4c.1,-.1,.2,-.2,.4,-.2Zm2.3,0v0c.1,0,.3,.1,.4,.2c.1,.1,.1,.2,.1,.4c0,.1,0,.3,-.1,.4c-.1,.1,-.3,.2,-.4,.2c-.2,0,-.3,-.1,-.4,-.2c-.2,-.1,-.2,-.3,-.2,-.4c0,-.2,0,-.3,.2,-.4c.1,-.1,.2,-.2,.4,-.2Zm2.3,0v0c.1,0,.3,.1,.4,.2c.1,.1,.1,.2,.1,.4c0,.2,0,.3,-.1,.4c-.2,.1,-.3,.2,-.4,.2c-.2,0,-.3,-.1,-.5,-.2c-.1,-.1,-.1,-.2,-.1,-.4c0,-.2,0,-.3,.2,-.4c.1,-.1,.2,-.2,.4,-.2Zm2.3,0v0c.1,0,.2,.1,.4,.2c.1,.1,.1,.2,.1,.4c0,.2,0,.3,-.1,.4c-.2,.1,-.3,.2,-.4,.2c-.2,0,-.3,-.1,-.5,-.2c-.1,-.1,-.1,-.2,-.1,-.4c0,-.2,0,-.3,.1,-.4c.2,-.1,.3,-.2,.5,-.2Zm2.2,0v0c.2,0,.3,.1,.5,.2c.1,.1,.1,.2,.1,.4c0,.2,0,.3,-.1,.4c-.2,.1,-.3,.2,-.5,.2c-.1,0,-.2,-.1,-.4,-.2c-.1,-.1,-.1,-.2,-.1,-.4c0,-.2,0,-.3,.1,-.4c.2,-.1,.3,-.2,.4,-.2Zm2.3,0v0c.2,0,.3,.1,.4,.2c.2,.1,.2,.2,.2,.4c0,.2,0,.3,-.2,.4c-.1,.1,-.2,.2,-.4,.2c-.1,0,-.3,-.1,-.4,-.2c-.1,-.1,-.1,-.2,-.1,-.4c0,-.2,0,-.3,.1,-.4c.1,-.1,.3,-.2,.4,-.2Zm2.3,0v0c.2,0,.3,.1,.4,.2c.2,.1,.2,.2,.2,.4c0,.2,0,.3,-.2,.4c-.1,.1,-.2,.2,-.4,.2c-.1,0,-.3,-.1,-.4,-.2c-.1,-.1,-.1,-.2,-.1,-.4c0,-.2,0,-.3,.1,-.4c.1,-.1,.3,-.2,.4,-.2Zm2.3,0v0c.2,0,.3,.1,.4,.2c.2,.1,.2,.2,.2,.4c0,.2,0,.3,-.2,.4c-.1,.1,-.2,.2,-.4,.2c-.1,0,-.3,-.1,-.4,-.2c-.1,-.1,-.1,-.2,-.1,-.4c0,-.2,0,-.3,.1,-.4c.1,-.1,.3,-.2,.4,-.2Zm2.3,0v0c.2,0,.3,.1,.4,.2c.1,.1,.2,.3,.2,.4c0,.2,-.1,.3,-.2,.4c-.1,.1,-.2,.2,-.4,.2c-.1,0,-.3,-.1,-.4,-.2c-.1,-.1,-.1,-.2,-.1,-.4c0,-.2,0,-.3,.1,-.4c.1,-.1,.3,-.2,.4,-.2Zm2.3,0v0c.2,0,.3,.1,.4,.2c.1,.1,.2,.3,.2,.4c0,.2,-.1,.3,-.2,.4c-.1,.1,-.2,.2,-.4,.2c-.1,0,-.3,-.1,-.4,-.2c-.1,-.1,-.1,-.2,-.1,-.4c0,-.1,0,-.3,.1,-.4c.1,-.1,.3,-.2,.4,-.2Zm2.3,0v0c.2,0,.3,.1,.4,.2c.1,.1,.2,.3,.2,.4c0,.2,-.1,.3,-.2,.4c-.1,.1,-.2,.2,-.4,.2c-.1,0,-.3,-.1,-.4,-.2c-.1,-.1,-.2,-.2,-.2,-.4c0,-.1,.1,-.3,.2,-.4c.1,-.1,.3,-.2,.4,-.2Zm2.3,0v0c.2,0,.3,.1,.4,.2c.1,.1,.2,.3,.2,.4c0,.2,-.1,.3,-.2,.4c-.1,.1,-.2,.2,-.4,.2c-.1,0,-.3,-.1,-.4,-.2c-.1,-.1,-.2,-.2,-.2,-.4c0,-.1,.1,-.3,.2,-.4c.1,-.1,.3,-.2,.4,-.2Zm2.3,0v0c.2,0,.3,.1,.4,.2c.1,.1,.2,.3,.2,.4c0,.2,-.1,.3,-.2,.4c-.1,.1,-.2,.2,-.4,.2c-.1,0,-.3,-.1,-.4,-.2c-.1,-.1,-.2,-.2,-.2,-.4c0,-.1,.1,-.3,.2,-.4c.1,-.1,.3,-.2,.4,-.2Zm2.3,0v0c.2,0,.3,.1,.4,.2c.1,.1,.2,.3,.2,.4c0,.2,-.1,.3,-.2,.4c-.1,.1,-.2,.2,-.4,.2c-.2,0,-.3,-.1,-.4,-.2c-.1,-.1,-.2,-.2,-.2,-.4c0,-.1,.1,-.3,.2,-.4c.1,-.1,.2,-.2,.4,-.2Zm2.3,0v0c.2,0,.3,.1,.4,.2c.1,.1,.2,.3,.2,.4c0,.2,-.1,.3,-.2,.4c-.1,.1,-.2,.2,-.4,.2c-.2,0,-.3,-.1,-.4,-.2c-.1,-.1,-.2,-.2,-.2,-.4c0,-.1,.1,-.3,.2,-.4c.1,-.1,.2,-.2,.4,-.2Zm2.3,.1v0c.2,0,.3,0,.4,.1c.1,.1,.2,.3,.2,.4c0,.2,-.1,.3,-.2,.4c-.1,.1,-.2,.2,-.4,.2c-.2,0,-.3,-.1,-.4,-.2c-.1,-.1,-.2,-.2,-.2,-.4c0,-.1,.1,-.3,.2,-.4c.1,-.1,.2,-.1,.4,-.1Zm2.3,0v0c.2,0,.3,0,.4,.1c.1,.1,.2,.3,.2,.4c0,.2,-.1,.3,-.2,.4c-.1,.1,-.2,.2,-.4,.2c-.2,0,-.3,-.1,-.4,-.2c-.1,-.1,-.2,-.2,-.2,-.4c0,-.1,.1,-.3,.2,-.4c.1,-.1,.2,-.1,.4,-.1Zm2.3,0v0c.1,0,.3,0,.4,.1c.1,.1,.2,.3,.2,.4c0,.2,-.1,.3,-.2,.4c-.1,.1,-.3,.2,-.4,.2c-.2,0,-.3,-.1,-.4,-.2c-.1,-.1,-.2,-.2,-.2,-.4c0,-.1,.1,-.3,.2,-.4c.1,-.1,.2,-.1,.4,-.1Zm2.3,0v0c.1,0,.3,0,.4,.1c.1,.1,.2,.3,.2,.4c0,.2,-.1,.3,-.2,.4c-.1,.1,-.3,.2,-.4,.2c-.2,0,-.3,-.1,-.4,-.2c-.1,-.1,-.2,-.2,-.2,-.4c0,-.1,.1,-.3,.2,-.4c.1,-.1,.2,-.1,.4,-.1Zm2.3,0v0c.1,0,.3,0,.4,.1c.1,.1,.2,.3,.2,.4c0,.2,-.1,.3,-.2,.4c-.1,.2,-.3,.2,-.4,.2c-.2,0,-.3,0,-.4,-.2c-.1,-.1,-.2,-.2,-.2,-.4c0,-.1,.1,-.3,.2,-.4c.1,-.1,.2,-.1,.4,-.1Zm2.3,0v0c.1,0,.3,0,.4,.1c.1,.1,.2,.3,.2,.4c0,.2,-.1,.3,-.2,.4c-.1,.2,-.3,.2,-.4,.2c-.2,0,-.3,0,-.4,-.2c-.1,-.1,-.2,-.2,-.2,-.4c0,-.1,.1,-.3,.2,-.4c.1,-.1,.2,-.1,.4,-.1Zm2.3,0v0c.1,0,.3,0,.4,.1c.1,.1,.1,.3,.1,.4c0,.2,0,.3,-.1,.4c-.1,.2,-.3,.2,-.4,.2c-.2,0,-.3,0,-.4,-.2c-.1,-.1,-.2,-.2,-.2,-.4c0,-.1,.1,-.3,.2,-.4c.1,-.1,.2,-.1,.4,-.1Zm2.3,0v0c.1,0,.3,0,.4,.1c.1,.1,.1,.3,.1,.4c0,.2,0,.3,-.1,.4c-.1,.2,-.3,.2,-.4,.2c-.2,0,-.3,0,-.4,-.2c-.2,-.1,-.2,-.2,-.2,-.4c0,-.1,.1,-.3,.2,-.4c.1,-.1,.2,-.1,.4,-.1Zm2.3,0v0c.1,0,.3,0,.4,.1c.1,.2,.1,.3,.1,.4c0,.2,0,.3,-.1,.5c-.1,.1,-.3,.1,-.4,.1c-.2,0,-.3,0,-.4,-.2c-.2,-.1,-.2,-.2,-.2,-.4c0,-.1,0,-.2,.2,-.4c.1,-.1,.2,-.1,.4,-.1Zm2.3,0v0c.1,0,.3,0,.4,.1c.1,.2,.1,.3,.1,.4c0,.2,0,.3,-.1,.5c-.1,.1,-.3,.1,-.4,.1c-.2,0,-.3,0,-.4,-.1c-.2,-.2,-.2,-.3,-.2,-.5c0,-.1,0,-.2,.2,-.4c.1,-.1,.2,-.1,.4,-.1Zm2.3,0v0c.1,0,.2,0,.4,.1c.1,.2,.1,.3,.1,.4c0,.2,0,.3,-.1,.5c-.2,.1,-.3,.1,-.4,.1c-.2,0,-.3,0,-.5,-.1c-.1,-.2,-.1,-.3,-.1,-.5c0,-.1,0,-.2,.1,-.4c.2,-.1,.3,-.1,.5,-.1Zm2.3,0v0c.1,0,.2,0,.4,.1c.1,.2,.1,.3,.1,.5c0,.1,0,.2,-.1,.4c-.2,.1,-.3,.1,-.5,.1c-.1,0,-.2,0,-.4,-.1c-.1,-.2,-.1,-.3,-.1,-.4c0,-.2,0,-.3,.1,-.5c.2,-.1,.3,-.1,.5,-.1Zm2.2,0v0c.2,0,.3,0,.5,.1c.1,.2,.1,.3,.1,.5c0,.1,0,.2,-.1,.4c-.2,.1,-.3,.1,-.5,.1c-.1,0,-.2,0,-.4,-.1c-.1,-.2,-.1,-.3,-.1,-.4c0,-.2,0,-.3,.1,-.5c.2,-.1,.3,-.1,.4,-.1Zm2.3,0v0c.2,0,.3,0,.4,.2c.2,.1,.2,.2,.2,.4c0,.1,0,.3,-.2,.4c-.1,.1,-.2,.1,-.4,.1c-.1,0,-.3,0,-.4,-.1c-.1,-.2,-.1,-.3,-.1,-.4c0,-.2,0,-.3,.1,-.4c.1,-.2,.3,-.2,.4,-.2Zm2.3,0v0c.2,0,.3,0,.4,.2c.2,.1,.2,.2,.2,.4c0,.1,0,.3,-.2,.4c-.1,.1,-.2,.1,-.4,.1c-.1,0,-.3,0,-.4,-.1c-.1,-.1,-.1,-.3,-.1,-.4c0,-.2,0,-.3,.1,-.4c.1,-.2,.3,-.2,.4,-.2Zm2.3,0v0c.2,0,.3,0,.4,.2c.2,.1,.2,.2,.2,.4c0,.1,0,.3,-.2,.4c-.1,.1,-.2,.1,-.4,.1c-.1,0,-.3,0,-.4,-.1c-.1,-.1,-.1,-.3,-.1,-.4c0,-.2,0,-.3,.1,-.4c.1,-.2,.3,-.2,.4,-.2Zm2.3,0v0c.2,0,.3,0,.4,.2c.1,.1,.2,.2,.2,.4c0,.1,-.1,.3,-.2,.4c-.1,.1,-.2,.1,-.4,.1c-.1,0,-.3,0,-.4,-.1c-.1,-.1,-.1,-.3,-.1,-.4c0,-.2,0,-.3,.1,-.4c.1,-.2,.3,-.2,.4,-.2Zm2.3,0v0c.2,0,.3,0,.4,.2c.1,.1,.2,.2,.2,.4c0,.1,-.1,.3,-.2,.4c-.1,.1,-.2,.1,-.4,.1c-.1,0,-.3,0,-.4,-.1c-.1,-.1,-.2,-.3,-.1,-.4c0,-.2,0,-.3,.1,-.4c.1,-.2,.3,-.2,.4,-.2Zm2.3,0v0c.2,0,.3,.1,.4,.2c.1,.1,.2,.2,.2,.4c0,.1,-.1,.3,-.2,.4c-.1,.1,-.2,.1,-.4,.1c-.1,0,-.3,0,-.4,-.1c-.1,-.1,-.2,-.3,-.2,-.4c0,-.2,.1,-.3,.2,-.4c.1,-.1,.3,-.2,.4,-.2Zm2.3,0v0c.2,0,.3,.1,.4,.2c.1,.1,.2,.2,.2,.4c0,.1,-.1,.3,-.2,.4c-.1,.1,-.2,.1,-.4,.1c-.1,0,-.3,0,-.4,-.1c-.1,-.1,-.2,-.3,-.2,-.4c0,-.2,.1,-.3,.2,-.4c.1,-.1,.3,-.2,.4,-.2Zm2.3,0v0c.2,0,.3,.1,.4,.2c.1,.1,.2,.2,.2,.4c0,.1,-.1,.3,-.2,.4c-.1,.1,-.2,.1,-.4,.1c-.1,0,-.3,0,-.4,-.1c-.1,-.1,-.2,-.3,-.2,-.4c0,-.2,.1,-.3,.2,-.4c.1,-.1,.3,-.2,.4,-.2Zm2.3,0v0c.2,0,.3,.1,.4,.2c.1,.1,.2,.2,.2,.4c0,.1,-.1,.3,-.2,.4c-.1,.1,-.2,.1,-.4,.1c-.2,0,-.3,0,-.4,-.1c-.1,-.1,-.2,-.3,-.2,-.4c0,-.2,.1,-.3,.2,-.4c.1,-.1,.2,-.2,.4,-.2Zm2.3,0v0c.2,0,.3,.1,.4,.2c.1,.1,.2,.2,.2,.4c0,.1,-.1,.3,-.2,.4c-.1,.1,-.2,.2,-.4,.2c-.2,0,-.3,-.1,-.4,-.2c-.1,-.1,-.2,-.3,-.2,-.4c0,-.2,.1,-.3,.2,-.4c.1,-.1,.2,-.2,.4,-.2Zm2.3,0v0c.2,0,.3,.1,.4,.2c.1,.1,.2,.2,.2,.4c0,.1,-.1,.3,-.2,.4c-.1,.1,-.2,.2,-.4,.2c-.2,0,-.3,-.1,-.4,-.2c-.1,-.1,-.2,-.3,-.2,-.4c0,-.2,.1,-.3,.2,-.4c.1,-.1,.2,-.2,.4,-.2Zm2.3,0v0c.2,0,.3,.1,.4,.2c.1,.1,.2,.2,.2,.4c0,.1,-.1,.3,-.2,.4c-.1,.1,-.2,.2,-.4,.2c-.2,0,-.3,-.1,-.4,-.2c-.1,-.1,-.2,-.3,-.2,-.4c0,-.2,.1,-.3,.2,-.4c.1,-.1,.2,-.2,.4,-.2Zm2.3,0v0c.1,0,.3,.1,.4,.2c.1,.1,.2,.2,.2,.4c0,.1,-.1,.3,-.2,.4c-.1,.1,-.3,.2,-.4,.2c-.2,0,-.3,-.1,-.4,-.2c-.1,-.1,-.2,-.3,-.2,-.4c0,-.2,.1,-.3,.2,-.4c.1,-.1,.2,-.2,.4,-.2Zm2.3,0v0c.1,0,.3,.1,.4,.2c.1,.1,.2,.2,.2,.4c0,.1,-.1,.3,-.2,.4c-.1,.1,-.3,.2,-.4,.2c-.2,0,-.3,-.1,-.4,-.2c-.1,-.1,-.2,-.3,-.2,-.4c0,-.2,.1,-.3,.2,-.4c.1,-.1,.2,-.2,.4,-.2Zm2.3,0v0c.1,0,.3,.1,.4,.2c.1,.1,.2,.2,.2,.4c0,.1,-.1,.3,-.2,.4c-.1,.1,-.3,.2,-.4,.2c-.2,0,-.3,-.1,-.4,-.2c-.1,-.1,-.2,-.3,-.2,-.4c0,-.2,.1,-.3,.2,-.4c.1,-.1,.2,-.2,.4,-.2Zm2.3,0v0c.1,0,.3,.1,.4,.2c.1,.1,.1,.2,.1,.4c0,.2,0,.3,-.1,.4c-.1,.1,-.3,.2,-.4,.2c-.2,0,-.3,-.1,-.4,-.2c-.1,-.1,-.2,-.2,-.2,-.4c0,-.2,.1,-.3,.2,-.4c.1,-.1,.2,-.2,.4,-.2Zm2.3,0v0c.1,0,.3,.1,.4,.2c.1,.1,.1,.2,.1,.4c0,.2,0,.3,-.1,.4c-.1,.1,-.3,.2,-.4,.2c-.2,0,-.3,-.1,-.4,-.2c-.1,-.1,-.2,-.2,-.2,-.4c0,-.2,.1,-.3,.2,-.4c.1,-.1,.2,-.2,.4,-.2Zm2.3,0v0c.1,0,.3,.1,.4,.2c.1,.1,.1,.2,.1,.4c0,.2,0,.3,-.1,.4c-.1,.1,-.3,.2,-.4,.2c-.2,0,-.3,-.1,-.4,-.2c-.2,-.1,-.2,-.2,-.2,-.4c0,-.2,0,-.3,.2,-.4c.1,-.1,.2,-.2,.4,-.2Zm2.3,0v0c.1,0,.3,.1,.4,.2c.1,.1,.1,.2,.1,.4c0,.2,0,.3,-.1,.4c-.1,.1,-.3,.2,-.4,.2c-.2,0,-.3,-.1,-.4,-.2c-.2,-.1,-.2,-.2,-.2,-.4c0,-.2,0,-.3,.2,-.4c.1,-.1,.2,-.2,.4,-.2Zm2.3,0v0c.1,0,.3,.1,.4,.2c.1,.1,.1,.2,.1,.4c0,.2,0,.3,-.1,.4c-.1,.1,-.3,.2,-.4,.2c-.2,0,-.3,-.1,-.4,-.2c-.2,-.1,-.2,-.2,-.2,-.4c0,-.2,0,-.3,.2,-.4c.1,-.1,.2,-.2,.4,-.2Zm2.3,0v0c.1,0,.2,.1,.4,.2c.1,.1,.1,.2,.1,.4c0,.2,0,.3,-.1,.4c-.2,.1,-.3,.2,-.4,.2c-.2,0,-.3,-.1,-.5,-.2c-.1,-.1,-.1,-.2,-.1,-.4c0,-.2,0,-.3,.1,-.4c.2,-.1,.3,-.2,.5,-.2Zm2.2,0v0c.2,0,.3,.1,.5,.2c.1,.1,.1,.2,.1,.4c0,.2,0,.3,-.1,.4c-.2,.1,-.3,.2,-.5,.2c-.1,0,-.2,-.1,-.4,-.2c-.1,-.1,-.1,-.2,-.1,-.4c0,-.2,0,-.3,.1,-.4c.2,-.1,.3,-.2,.4,-.2Zm2.3,0v0c.2,0,.3,.1,.5,.2c.1,.1,.1,.3,.1,.4c0,.2,0,.3,-.1,.4c-.2,.1,-.3,.2,-.5,.2c-.1,0,-.2,-.1,-.4,-.2c-.1,-.1,-.1,-.2,-.1,-.4c0,-.1,0,-.3,.1,-.4c.2,-.1,.3,-.2,.4,-.2Zm2.3,0v0c.2,0,.3,.1,.4,.2c.2,.1,.2,.3,.2,.4c0,.2,0,.3,-.2,.4c-.1,.1,-.2,.2,-.4,.2c-.1,0,-.3,-.1,-.4,-.2c-.1,-.1,-.1,-.2,-.1,-.4c0,-.1,0,-.3,.1,-.4c.1,-.1,.3,-.2,.4,-.2Zm2.3,0v0c.2,0,.3,.1,.4,.2c.2,.1,.2,.3,.2,.4c0,.2,0,.3,-.2,.4c-.1,.1,-.2,.2,-.4,.2c-.1,0,-.3,-.1,-.4,-.2c-.1,-.1,-.1,-.2,-.1,-.4c0,-.1,0,-.3,.1,-.4c.1,-.1,.3,-.2,.4,-.2Zm2.3,0v0c.2,0,.3,.1,.4,.2c.1,.1,.2,.3,.2,.4c0,.2,-.1,.3,-.2,.4c-.1,.1,-.2,.2,-.4,.2c-.1,0,-.3,-.1,-.4,-.2c-.1,-.1,-.1,-.2,-.1,-.4c0,-.1,0,-.3,.1,-.4c.1,-.1,.3,-.2,.4,-.2Zm2.3,0v0c.2,0,.3,.1,.4,.2c.1,.1,.2,.3,.2,.4c0,.2,-.1,.3,-.2,.4c-.1,.1,-.2,.2,-.4,.2c-.1,0,-.3,-.1,-.4,-.2c-.1,-.1,-.1,-.2,-.1,-.4c0,-.1,0,-.3,.1,-.4c.1,-.1,.3,-.2,.4,-.2Zm2.3,0v0c.2,0,.3,.1,.4,.2c.1,.1,.2,.3,.2,.4c0,.2,-.1,.3,-.2,.4c-.1,.1,-.2,.2,-.4,.2c-.1,0,-.3,-.1,-.4,-.2c-.1,-.1,-.2,-.2,-.2,-.4c0,-.1,.1,-.3,.2,-.4c.1,-.1,.3,-.2,.4,-.2Zm2.3,.1v0c.2,0,.3,0,.4,.1c.1,.1,.2,.3,.2,.4c0,.2,-.1,.3,-.2,.4c-.1,.1,-.2,.2,-.4,.2c-.1,0,-.3,-.1,-.4,-.2c-.1,-.1,-.2,-.2,-.2,-.4c0,-.1,.1,-.3,.2,-.4c.1,-.1,.3,-.1,.4,-.1Zm2.3,0v0c.2,0,.3,0,.4,.1c.1,.1,.2,.3,.2,.4c0,.2,-.1,.3,-.2,.4c-.1,.1,-.2,.2,-.4,.2c-.1,0,-.3,-.1,-.4,-.2c-.1,-.1,-.2,-.2,-.2,-.4c0,-.1,.1,-.3,.2,-.4c.1,-.1,.3,-.1,.4,-.1Zm2.3,0v0c.2,0,.3,0,.4,.1c.1,.1,.2,.3,.2,.4c0,.2,-.1,.3,-.2,.4c-.1,.1,-.2,.2,-.4,.2c-.1,0,-.3,-.1,-.4,-.2c-.1,-.1,-.2,-.2,-.2,-.4c0,-.1,.1,-.3,.2,-.4c.1,-.1,.3,-.1,.4,-.1Zm2.3,0v0c.2,0,.3,0,.4,.1c.1,.1,.2,.3,.2,.4c0,.2,-.1,.3,-.2,.4c-.1,.1,-.2,.2,-.4,.2c-.2,0,-.3,-.1,-.4,-.2c-.1,-.1,-.2,-.2,-.2,-.4c0,-.1,.1,-.3,.2,-.4c.1,-.1,.2,-.1,.4,-.1Zm2.3,0v0c.2,0,.3,0,.4,.1c.1,.1,.2,.3,.2,.4c0,.2,-.1,.3,-.2,.4c-.1,.2,-.2,.2,-.4,.2c-.2,0,-.3,0,-.4,-.2c-.1,-.1,-.2,-.2,-.2,-.4c0,-.1,.1,-.3,.2,-.4c.1,-.1,.2,-.1,.4,-.1Zm2.3,0v0c.2,0,.3,0,.4,.1c.1,.1,.2,.3,.2,.4c0,.2,-.1,.3,-.2,.4c-.1,.2,-.2,.2,-.4,.2c-.2,0,-.3,0,-.4,-.2c-.1,-.1,-.2,-.2,-.2,-.4c0,-.1,.1,-.3,.2,-.4c.1,-.1,.2,-.1,.4,-.1Zm2.3,0v0c.2,0,.3,0,.4,.1c.1,.1,.2,.3,.2,.4c0,.2,-.1,.3,-.2,.4c-.1,.2,-.3,.2,-.4,.2c-.2,0,-.3,0,-.4,-.2c-.1,-.1,-.2,-.2,-.2,-.4c0,-.1,.1,-.3,.2,-.4c.1,-.1,.2,-.1,.4,-.1Zm2.3,0v0c.1,0,.3,0,.4,.1c.1,.1,.2,.3,.2,.4c0,.2,-.1,.3,-.2,.4c-.1,.2,-.3,.2,-.4,.2c-.2,0,-.3,0,-.4,-.2c-.1,-.1,-.2,-.2,-.2,-.4c0,-.1,.1,-.3,.2,-.4c.1,-.1,.2,-.1,.4,-.1Zm2.3,0v0c.1,0,.3,0,.4,.1c.1,.2,.2,.3,.2,.4c0,.2,-.1,.3,-.2,.4c-.1,.2,-.3,.2,-.4,.2c-.2,0,-.3,0,-.4,-.2c-.1,-.1,-.2,-.2,-.2,-.4c0,-.1,.1,-.3,.2,-.4c.1,-.1,.2,-.1,.4,-.1Zm2.3,0v0c.1,0,.3,0,.4,.1c.1,.2,.2,.3,.2,.4c0,.2,-.1,.3,-.2,.5c-.1,.1,-.3,.1,-.4,.1c-.2,0,-.3,0,-.4,-.1c-.1,-.2,-.2,-.3,-.2,-.5c0,-.1,.1,-.2,.2,-.4c.1,-.1,.2,-.1,.4,-.1Zm2.3,0v0c.1,0,.3,0,.4,.1c.1,.2,.1,.3,.1,.4c0,.2,0,.3,-.1,.5c-.1,.1,-.3,.1,-.4,.1c-.2,0,-.3,0,-.4,-.1c-.1,-.2,-.2,-.3,-.2,-.5c0,-.1,.1,-.2,.2,-.4c.1,-.1,.2,-.1,.4,-.1Zm2.3,0v0c.1,0,.3,0,.4,.1c.1,.2,.1,.3,.1,.5c0,.1,0,.2,-.1,.4c-.1,.1,-.3,.1,-.4,.1c-.2,0,-.3,0,-.4,-.1c-.1,-.2,-.2,-.3,-.2,-.4c0,-.2,.1,-.3,.2,-.5c.1,-.1,.2,-.1,.4,-.1Zm2.3,0v0c.1,0,.3,0,.4,.1c.1,.2,.1,.3,.1,.5c0,.1,0,.2,-.1,.4c-.1,.1,-.3,.1,-.4,.1c-.2,0,-.3,0,-.4,-.1c-.2,-.2,-.2,-.3,-.2,-.4c0,-.2,0,-.3,.2,-.5c.1,-.1,.2,-.1,.4,-.1Zm2.3,0v0c.1,0,.3,0,.4,.2c.1,.1,.1,.2,.1,.4c0,.1,0,.3,-.1,.4c-.1,.1,-.3,.1,-.4,.1c-.2,0,-.3,0,-.4,-.1c-.2,-.2,-.2,-.3,-.2,-.4c0,-.2,0,-.3,.2,-.4c.1,-.2,.2,-.2,.4,-.2Zm2.3,0v0c.1,0,.3,0,.4,.2c.1,.1,.1,.2,.1,.4c0,.1,0,.3,-.1,.4c-.1,.1,-.3,.1,-.4,.1c-.2,0,-.3,0,-.4,-.1c-.2,-.1,-.2,-.3,-.2,-.4c0,-.2,0,-.3,.2,-.4c.1,-.2,.2,-.2,.4,-.2Zm2.3,0v0c.1,0,.2,0,.4,.2c.1,.1,.1,.2,.1,.4c0,.1,0,.3,-.1,.4c-.2,.1,-.3,.1,-.4,.1c-.2,0,-.3,0,-.5,-.1c-.1,-.1,-.1,-.3,-.1,-.4c0,-.2,0,-.3,.1,-.4c.2,-.2,.3,-.2,.5,-.2Zm2.2,0v0c.2,0,.3,0,.5,.2c.1,.1,.1,.2,.1,.4c0,.1,0,.3,-.1,.4c-.2,.1,-.3,.1,-.5,.1c-.1,0,-.2,0,-.4,-.1c-.1,-.1,-.1,-.3,-.1,-.4c0,-.2,0,-.3,.1,-.4c.2,-.2,.3,-.2,.4,-.2Zm2.3,0v0c.2,0,.3,0,.4,.2c.2,.1,.2,.2,.2,.4c0,.1,0,.3,-.2,.4c-.1,.1,-.2,.1,-.4,.1c-.1,0,-.3,0,-.4,-.1c-.1,-.1,-.1,-.3,-.1,-.4c0,-.2,0,-.3,.1,-.4c.2,-.2,.3,-.2,.4,-.2Zm2.3,0v0c.2,0,.3,.1,.4,.2c.2,.1,.2,.2,.2,.4c0,.1,0,.3,-.2,.4c-.1,.1,-.2,.1,-.4,.1c-.1,0,-.3,0,-.4,-.1c-.1,-.1,-.1,-.3,-.1,-.4c0,-.2,0,-.3,.1,-.4c.1,-.1,.3,-.2,.4,-.2Zm2.3,0v0c.2,0,.3,.1,.4,.2c.2,.1,.2,.2,.2,.4c0,.1,0,.3,-.2,.4c-.1,.1,-.2,.1,-.4,.1c-.1,0,-.3,0,-.4,-.1c-.1,-.1,-.1,-.3,-.1,-.4c0,-.2,0,-.3,.1,-.4c.1,-.1,.3,-.2,.4,-.2Zm2.3,0v0c.2,0,.3,.1,.4,.2c.1,.1,.2,.2,.2,.4c0,.1,-.1,.3,-.2,.4c-.1,.1,-.2,.1,-.4,.1c-.1,0,-.3,0,-.4,-.1c-.1,-.1,-.1,-.3,-.1,-.4c0,-.2,0,-.3,.1,-.4c.1,-.1,.3,-.2,.4,-.2Zm2.3,0v0c.2,0,.3,.1,.4,.2c.1,.1,.2,.2,.2,.4c0,.1,-.1,.3,-.2,.4c-.1,.1,-.2,.1,-.4,.1c-.1,0,-.3,0,-.4,-.1c-.1,-.1,-.1,-.3,-.1,-.4c0,-.2,0,-.3,.1,-.4c.1,-.1,.3,-.2,.4,-.2Zm2.3,0v0c.2,0,.3,.1,.4,.2c.1,.1,.2,.2,.2,.4c0,.1,-.1,.3,-.2,.4c-.1,.1,-.2,.2,-.4,.2c-.1,0,-.3,-.1,-.4,-.2c-.1,-.1,-.2,-.3,-.2,-.4c0,-.2,.1,-.3,.2,-.4c.1,-.1,.3,-.2,.4,-.2Zm2.3,0v0c.2,0,.3,.1,.4,.2c.1,.1,.2,.2,.2,.4c0,.1,-.1,.3,-.2,.4c-.1,.1,-.2,.2,-.4,.2c-.1,0,-.3,-.1,-.4,-.2c-.1,-.1,-.2,-.3,-.2,-.4c0,-.2,.1,-.3,.2,-.4c.1,-.1,.3,-.2,.4,-.2Zm2.3,0v0c.2,0,.3,.1,.4,.2c.1,.1,.2,.2,.2,.4c0,.1,-.1,.3,-.2,.4c-.1,.1,-.2,.2,-.4,.2c-.1,0,-.3,-.1,-.4,-.2c-.1,-.1,-.2,-.3,-.2,-.4c0,-.2,.1,-.3,.2,-.4c.1,-.1,.3,-.2,.4,-.2Zm2.3,0v0c.2,0,.3,.1,.4,.2c.1,.1,.2,.2,.2,.4c0,.1,-.1,.3,-.2,.4c-.1,.1,-.2,.2,-.4,.2c-.2,0,-.3,-.1,-.4,-.2c-.1,-.1,-.2,-.3,-.2,-.4c0,-.2,.1,-.3,.2,-.4c.1,-.1,.3,-.2,.4,-.2Zm2.3,0v0c.2,0,.3,.1,.4,.2c.1,.1,.2,.2,.2,.4c0,.1,-.1,.3,-.2,.4c-.1,.1,-.2,.2,-.4,.2c-.2,0,-.3,-.1,-.4,-.2c-.1,-.1,-.2,-.3,-.2,-.4c0,-.2,.1,-.3,.2,-.4c.1,-.1,.2,-.2,.4,-.2Zm2.3,0v0c.2,0,.3,.1,.4,.2c.1,.1,.2,.2,.2,.4c0,.1,-.1,.3,-.2,.4c-.1,.1,-.2,.2,-.4,.2c-.2,0,-.3,-.1,-.4,-.2c-.1,-.1,-.2,-.3,-.2,-.4c0,-.2,.1,-.3,.2,-.4c.1,-.1,.2,-.2,.4,-.2Zm2.3,0v0c.2,0,.3,.1,.4,.2c.1,.1,.2,.2,.2,.4c0,.2,-.1,.3,-.2,.4c-.1,.1,-.2,.2,-.4,.2c-.2,0,-.3,-.1,-.4,-.2c-.1,-.1,-.2,-.2,-.2,-.4c0,-.2,.1,-.3,.2,-.4c.1,-.1,.2,-.2,.4,-.2Zm2.3,0v0c.1,0,.3,.1,.4,.2c.1,.1,.2,.2,.2,.4c0,.2,-.1,.3,-.2,.4c-.1,.1,-.3,.2,-.4,.2c-.2,0,-.3,-.1,-.4,-.2c-.1,-.1,-.2,-.2,-.2,-.4c0,-.2,.1,-.3,.2,-.4c.1,-.1,.2,-.2,.4,-.2Zm2.3,0v0c.1,0,.3,.1,.4,.2c.1,.1,.2,.2,.2,.4c0,.2,-.1,.3,-.2,.4c-.1,.1,-.3,.2,-.4,.2c-.2,0,-.3,-.1,-.4,-.2c-.1,-.1,-.2,-.2,-.2,-.4c0,-.2,.1,-.3,.2,-.4c.1,-.1,.2,-.2,.4,-.2Zm2.3,0v0c.1,0,.3,.1,.4,.2c.1,.1,.2,.2,.2,.4c0,.2,-.1,.3,-.2,.4c-.1,.1,-.3,.2,-.4,.2c-.2,0,-.3,-.1,-.4,-.2c-.1,-.1,-.2,-.2,-.2,-.4c0,-.2,.1,-.3,.2,-.4c.1,-.1,.2,-.2,.4,-.2Zm2.3,0v0c.1,0,.3,.1,.4,.2c.1,.1,.2,.2,.2,.4c0,.2,-.1,.3,-.2,.4c-.1,.1,-.3,.2,-.4,.2c-.2,0,-.3,-.1,-.4,-.2c-.1,-.1,-.2,-.2,-.2,-.4c0,-.2,.1,-.3,.2,-.4c.1,-.1,.2,-.2,.4,-.2Zm2.3,0v0c.1,0,.3,.1,.4,.2c.1,.1,.1,.2,.1,.4c0,.2,0,.3,-.1,.4c-.1,.1,-.3,.2,-.4,.2c-.2,0,-.3,-.1,-.4,-.2c-.1,-.1,-.2,-.2,-.2,-.4c0,-.2,.1,-.3,.2,-.4c.1,-.1,.2,-.2,.4,-.2Zm2.3,0v0c.1,0,.3,.1,.4,.2c.1,.1,.1,.2,.1,.4c0,.2,0,.3,-.1,.4c-.1,.1,-.3,.2,-.4,.2c-.2,0,-.3,-.1,-.4,-.2c-.1,-.1,-.2,-.2,-.2,-.4c0,-.2,.1,-.3,.2,-.4c.1,-.1,.2,-.2,.4,-.2Zm2.3,0v0c.1,0,.3,.1,.4,.2c.1,.1,.1,.3,.1,.4c0,.2,0,.3,-.1,.4c-.1,.1,-.3,.2,-.4,.2c-.2,0,-.3,-.1,-.4,-.2c-.2,-.1,-.2,-.2,-.2,-.4c0,-.1,0,-.3,.2,-.4c.1,-.1,.2,-.2,.4,-.2Zm2.3,0v0c.1,0,.3,.1,.4,.2c.1,.1,.1,.3,.1,.4c0,.2,0,.3,-.1,.4c-.1,.1,-.3,.2,-.4,.2c-.2,0,-.3,-.1,-.4,-.2c-.2,-.1,-.2,-.2,-.2,-.4c0,-.1,0,-.3,.2,-.4c.1,-.1,.2,-.2,.4,-.2Zm2.3,0v0c.1,0,.2,.1,.4,.2c.1,.1,.1,.3,.1,.4c0,.2,0,.3,-.1,.4c-.2,.1,-.3,.2,-.4,.2c-.2,0,-.3,-.1,-.5,-.2c-.1,-.1,-.1,-.2,-.1,-.4c0,-.1,0,-.3,.2,-.4c.1,-.1,.2,-.2,.4,-.2Z" class="g1"/>
</svg>