<?xml version="1.0" encoding="UTF-8" standalone="no"?>
<!DOCTYPE svg PUBLIC "-//W3C//DTD SVG 1.1//EN"
"http://www.w3.org/Graphics/SVG/1.1/DTD/svg11.dtd">
<svg viewBox="0 0 935 1210" version="1.1" xmlns="http://www.w3.org/2000/svg" xmlns:xlink="http://www.w3.org/1999/xlink">
<defs>
<clipPath id="c0"><path d="M61.8,282.1v-19H81.2v19Z"/></clipPath>
<clipPath id="c1"><path d="M61.8,312.6V293.2H81.2v19.4Z"/></clipPath>
<clipPath id="c2"><path d="M88.5,207V32.1h175V207Z"/></clipPath>
<style type="text/css"><![CDATA[
.g0{
fill: #FFFFFF;
}
.g1{
}
.g2{
fill: #2B2B74;
}
.g3{
fill: none;
stroke: #2B2B74;
stroke-width: 8.616;
stroke-linecap: butt;
stroke-linejoin: round;
}
]]></style>
</defs>
<path d="M40.2,0H894.7V1210H40.2Z" class="g0"/>
<image clip-path="url(#c0)" preserveAspectRatio="none" x="62" y="263" width="19" height="19" xlink:href="img/1.jpg"/>
<image clip-path="url(#c1)" preserveAspectRatio="none" x="62" y="293" width="19" height="20" xlink:href="img/2.jpg"/>
<path fill-rule="evenodd" d="M88.2,310H288.9v.9H88.2Z" class="g1"/>
<image clip-path="url(#c2)" preserveAspectRatio="none" x="89" y="32" width="174" height="175" xlink:href="img/3.jpg"/>
<path d="M62,432.1h3.3l.3,.2l.2,.4l-.2,.5h-4l-.2,-.5l.2,-.4l.4,-.2Zm7.5,0h3.3l.4,.2l.1,.4l-.1,.5H69.1l-.2,-.5l.2,-.4l.4,-.2Zm7.5,0h3.3l.4,.2l.2,.4l-.2,.5H76.6l-.1,-.5l.1,-.4l.4,-.2Zm7.7,0h3.1l.4,.2l.2,.4l-.2,.5h-4v-.9l.5,-.2Z" class="g2"/>
<path d="M92.2,432.1h3.1l.4,.2l.2,.4l-.2,.5H91.8l-.1,-.5l.1,-.4l.4,-.2Zm7.5,0h3.2l.5,.2v.9h-4l-.2,-.5l.2,-.4l.3,-.2Zm7.5,0h3.4l.3,.2l.2,.4l-.2,.5h-4l-.2,-.5l.2,-.4l.3,-.2Zm7.6,0h3.3l.3,.2l.2,.4l-.2,.5h-4l-.2,-.5l.2,-.4l.4,-.2Z" class="g2"/>
<path d="M122.3,432.1h3.3l.4,.2l.1,.4l-.1,.5h-4.1l-.2,-.5l.2,-.4l.4,-.2Zm7.5,0h3.3l.4,.2l.2,.4l-.2,.5h-4.1l-.2,-.5l.2,-.4l.4,-.2Zm7.5,0h3.3l.4,.2l.2,.4l-.2,.5h-4v-.9l.3,-.2Zm7.7,0h3.1l.4,.2l.2,.4l-.2,.5h-4v-.9l.5,-.2Z" class="g2"/>
<path d="M152.5,432.1h3.1l.4,.2l.2,.4l-.2,.5h-3.8l-.2,-.5l.2,-.4l.3,-.2Zm7.5,0h3.2l.5,.2v.9h-4l-.2,-.5l.2,-.4l.3,-.2Zm7.6,0h3.3l.3,.2l.2,.4l-.2,.5h-4l-.2,-.5l.2,-.4l.4,-.2Zm7.5,0h3.3l.3,.2l.2,.4l-.2,.5h-4l-.2,-.5l.2,-.4l.4,-.2Z" class="g2"/>
<path d="M182.6,432.1h3.3l.4,.2l.2,.4l-.2,.5h-4.1l-.1,-.5l.1,-.4l.4,-.2Zm7.5,0h3.3l.4,.2l.2,.4l-.2,.5h-4l-.2,-.5l.2,-.4l.3,-.2Zm7.5,0h3.3l.4,.2l.2,.4l-.2,.5h-4v-.9l.3,-.2Zm7.7,0h3.2l.3,.2l.2,.4l-.2,.5h-4v-.9l.5,-.2Z" class="g2"/>
<path d="M212.8,432.1H216l.3,.2l.2,.4l-.2,.5h-3.8l-.2,-.5l.2,-.4l.3,-.2Zm7.6,0h3.1l.5,.2v.9h-4l-.2,-.5l.2,-.4l.4,-.2Zm7.5,0h3.3l.3,.2l.2,.4l-.2,.5h-4l-.2,-.5l.2,-.4l.4,-.2Zm7.5,0h3.3l.4,.2l.1,.4l-.1,.5H235l-.2,-.5l.2,-.4l.4,-.2Z" class="g2"/>
<path d="M242.9,432.1h3.3l.4,.2l.2,.4l-.2,.5h-4.1l-.1,-.5l.1,-.4l.4,-.2Zm7.5,0h3.3l.4,.2l.2,.4l-.2,.5h-4l-.2,-.5l.2,-.4l.3,-.2Zm7.5,0h3.4l.3,.2l.2,.4l-.2,.5h-4v-.9l.3,-.2Zm7.8,0h3.1l.3,.2l.2,.4l-.2,.5h-4v-.9l.6,-.2Z" class="g2"/>
<path d="M273.2,432.1h3.1l.3,.2l.2,.4l-.2,.5h-3.8l-.2,-.5l.2,-.4l.4,-.2Zm7.5,0H284l.3,.2v.9h-4l-.2,-.5l.2,-.4l.4,-.2Zm7.5,0h3.3l.4,.2l.1,.4l-.1,.5h-4.1l-.2,-.5l.2,-.4l.4,-.2Zm7.5,0H299l.4,.2l.2,.4l-.2,.5h-4.1l-.1,-.5l.1,-.4l.4,-.2Zm7.5,0h3.3l.4,.2l.2,.4l-.2,.5h-4l-.2,-.5l.2,-.4l.3,-.2Zm7.5,0H314l.4,.2l.2,.4l-.2,.5h-4l-.2,-.5l.2,-.4l.3,-.2Zm7.7,0h3.2l.3,.2l.2,.4l-.2,.5h-4v-.9l.5,-.2Zm7.6,0h3.1l.3,.2l.2,.4l-.2,.5h-3.8l-.2,-.5l.2,-.4l.4,-.2Zm7.5,0h3.1l.5,.2v.9h-4l-.2,-.5l.2,-.4l.4,-.2Z" class="g2"/>
<path d="M62,647.7h3.6l.2,.6l-.2,.3h-4l-.2,-.3l.2,-.6H62Zm7.5,0h3.7l.1,.6l-.1,.3H69.1l-.2,-.3l.2,-.6h.4Zm7.5,0h3.7l.2,.6l-.2,.3H76.6l-.1,-.3l.1,-.6H77Zm7.7,0h3.5l.2,.6l-.2,.3h-4v-.9h.5Z" class="g2"/>
<path d="M92.2,647.7h3.5l.2,.6l-.2,.3H91.8l-.1,-.3l.1,-.6h.4Zm7.5,0h3.7v.9h-4l-.2,-.3l.2,-.6h.3Zm7.5,0h3.7l.2,.6l-.2,.3h-4l-.2,-.3l.2,-.6h.3Zm7.6,0h3.6l.2,.6l-.2,.3h-4l-.2,-.3l.2,-.6h.4Z" class="g2"/>
<path d="M122.3,647.7H126l.1,.6l-.1,.3h-4.1l-.2,-.3l.2,-.6h.4Zm7.5,0h3.7l.2,.6l-.2,.3h-4.1l-.2,-.3l.2,-.6h.4Zm7.5,0H141l.2,.6l-.2,.3h-4v-.9h.3Zm7.7,0h3.5l.2,.6l-.2,.3h-4v-.9h.5Z" class="g2"/>
<path d="M152.5,647.7H156l.2,.6l-.2,.3h-3.8l-.2,-.3l.2,-.6h.3Zm7.5,0h3.7v.9h-4l-.2,-.3l.2,-.6h.3Zm7.6,0h3.6l.2,.6l-.2,.3h-4l-.2,-.3l.2,-.6h.4Zm7.5,0h3.6l.2,.6l-.2,.3h-4l-.2,-.3l.2,-.6h.4Z" class="g2"/>
<path d="M182.6,647.7h3.7l.2,.6l-.2,.3h-4.1l-.1,-.3l.1,-.6h.4Zm7.5,0h3.7l.2,.6l-.2,.3h-4l-.2,-.3l.2,-.6h.3Zm7.5,0h3.7l.2,.6l-.2,.3h-4v-.9h.3Zm7.7,0h3.5l.2,.6l-.2,.3h-4v-.9h.5Z" class="g2"/>
<path d="M212.8,647.7h3.5l.2,.6l-.2,.3h-3.8l-.2,-.3l.2,-.6h.3Zm7.6,0H224v.9h-4l-.2,-.3l.2,-.6h.4Zm7.5,0h3.6l.2,.6l-.2,.3h-4l-.2,-.3l.2,-.6h.4Zm7.5,0h3.7l.1,.6l-.1,.3H235l-.2,-.3l.2,-.6h.4Z" class="g2"/>
<path d="M242.9,647.7h3.7l.2,.6l-.2,.3h-4.1l-.1,-.3l.1,-.6h.4Zm7.5,0h3.7l.2,.6l-.2,.3h-4l-.2,-.3l.2,-.6h.3Zm7.5,0h3.7l.2,.6l-.2,.3h-4v-.9h.3Zm7.8,0h3.4l.2,.6l-.2,.3h-4v-.9h.6Z" class="g2"/>
<path d="M273.2,647.7h3.4l.2,.6l-.2,.3h-3.8l-.2,-.3l.2,-.6h.4Zm7.5,0h3.6v.9h-4l-.2,-.3l.2,-.6h.4Zm7.5,0h3.7l.1,.6l-.1,.3h-4.1l-.2,-.3l.2,-.6h.4Zm7.5,0h3.7l.2,.6l-.2,.3h-4.1l-.1,-.3l.1,-.6h.4Zm7.5,0h3.7l.2,.6l-.2,.3h-4l-.2,-.3l.2,-.6h.3Zm7.5,0h3.7l.2,.6l-.2,.3h-4l-.2,-.3l.2,-.6h.3Zm7.7,0h3.5l.2,.6l-.2,.3h-4v-.9h.5Zm7.6,0h3.4l.2,.6l-.2,.3h-3.8l-.2,-.3l.2,-.6h.4Zm7.5,0h3.6v.9h-4l-.2,-.3l.2,-.6h.4Z" class="g2"/>
<path d="M62,880.4h3.6l.2,.5l-.2,.4l-.3,.2H62l-.4,-.2l-.2,-.4l.2,-.5H62Zm7.5,0h3.7l.1,.5l-.1,.4l-.4,.2H69.5l-.4,-.2l-.2,-.4l.2,-.5h.4Zm7.5,0h3.7l.2,.5l-.2,.4l-.4,.2H77l-.4,-.2l-.1,-.4l.1,-.5H77Zm7.7,0h3.5l.2,.5l-.2,.4l-.4,.2H84.7l-.5,-.2v-.9h.5Z" class="g2"/>
<path d="M92.2,880.4h3.5l.2,.5l-.2,.4l-.4,.2H92.2l-.4,-.2l-.1,-.4l.1,-.5h.4Zm7.5,0h3.7v.9l-.5,.2H99.7l-.3,-.2l-.2,-.4l.2,-.5h.3Zm7.5,0h3.7l.2,.5l-.2,.4l-.3,.2h-3.4l-.3,-.2l-.2,-.4l.2,-.5h.3Zm7.6,0h3.6l.2,.5l-.2,.4l-.3,.2h-3.3l-.4,-.2l-.2,-.4l.2,-.5h.4Z" class="g2"/>
<path d="M122.3,880.4H126l.1,.5l-.1,.4l-.4,.2h-3.3l-.4,-.2l-.2,-.4l.2,-.5h.4Zm7.5,0h3.7l.2,.5l-.2,.4l-.4,.2h-3.3l-.4,-.2l-.2,-.4l.2,-.5h.4Zm7.5,0H141l.2,.5l-.2,.4l-.4,.2h-3.3l-.3,-.2v-.9h.3Zm7.7,0h3.5l.2,.5l-.2,.4l-.4,.2H145l-.5,-.2v-.9h.5Z" class="g2"/>
<path d="M152.5,880.4H156l.2,.5l-.2,.4l-.4,.2h-3.1l-.3,-.2l-.2,-.4l.2,-.5h.3Zm7.5,0h3.7v.9l-.5,.2H160l-.3,-.2l-.2,-.4l.2,-.5h.3Zm7.6,0h3.6l.2,.5l-.2,.4l-.3,.2h-3.3l-.4,-.2l-.2,-.4l.2,-.5h.4Zm7.5,0h3.6l.2,.5l-.2,.4l-.3,.2h-3.3l-.4,-.2l-.2,-.4l.2,-.5h.4Z" class="g2"/>
<path d="M182.6,880.4h3.7l.2,.5l-.2,.4l-.4,.2h-3.3l-.4,-.2l-.1,-.4l.1,-.5h.4Zm7.5,0h3.7l.2,.5l-.2,.4l-.4,.2h-3.3l-.3,-.2l-.2,-.4l.2,-.5h.3Zm7.5,0h3.7l.2,.5l-.2,.4l-.4,.2h-3.3l-.3,-.2v-.9h.3Zm7.7,0h3.5l.2,.5l-.2,.4l-.3,.2h-3.2l-.5,-.2v-.9h.5Z" class="g2"/>
<path d="M212.8,880.4h3.5l.2,.5l-.2,.4l-.3,.2h-3.2l-.3,-.2l-.2,-.4l.2,-.5h.3Zm7.6,0H224v.9l-.5,.2h-3.1l-.4,-.2l-.2,-.4l.2,-.5h.4Zm7.5,0h3.6l.2,.5l-.2,.4l-.3,.2h-3.3l-.4,-.2l-.2,-.4l.2,-.5h.4Zm7.5,0h3.7l.1,.5l-.1,.4l-.4,.2h-3.3l-.4,-.2l-.2,-.4l.2,-.5h.4Z" class="g2"/>
<path d="M242.9,880.4h3.7l.2,.5l-.2,.4l-.4,.2h-3.3l-.4,-.2l-.1,-.4l.1,-.5h.4Zm7.5,0h3.7l.2,.5l-.2,.4l-.4,.2h-3.3l-.3,-.2l-.2,-.4l.2,-.5h.3Zm7.5,0h3.7l.2,.5l-.2,.4l-.3,.2h-3.4l-.3,-.2v-.9h.3Zm7.8,0h3.4l.2,.5l-.2,.4l-.3,.2h-3.1l-.6,-.2v-.9h.6Z" class="g2"/>
<path d="M273.2,880.4h3.4l.2,.5l-.2,.4l-.3,.2h-3.1l-.4,-.2l-.2,-.4l.2,-.5h.4Zm7.5,0h3.6v.9l-.3,.2h-3.3l-.4,-.2l-.2,-.4l.2,-.5h.4Zm7.5,0h3.7l.1,.5l-.1,.4l-.4,.2h-3.3l-.4,-.2l-.2,-.4l.2,-.5h.4Zm7.5,0h3.7l.2,.5l-.2,.4l-.4,.2h-3.3l-.4,-.2l-.1,-.4l.1,-.5h.4Zm7.5,0h3.7l.2,.5l-.2,.4l-.4,.2h-3.3l-.3,-.2l-.2,-.4l.2,-.5h.3Zm7.5,0h3.7l.2,.5l-.2,.4l-.4,.2h-3.3l-.3,-.2l-.2,-.4l.2,-.5h.3Zm7.7,0h3.5l.2,.5l-.2,.4l-.3,.2h-3.2l-.5,-.2v-.9h.5Zm7.6,0h3.4l.2,.5l-.2,.4l-.3,.2H326l-.4,-.2l-.2,-.4l.2,-.5h.4Zm7.5,0h3.6v.9l-.5,.2h-3.1l-.4,-.2l-.2,-.4l.2,-.5h.4Z" class="g2"/>
<path d="M62,1053.8h3.3l.3,-.2l.2,-.3l-.2,-.6H62l-.4,.2l-.2,.4l.2,.3l.4,.2Zm7.5,-.2h3.7l.1,-.3l-.1,-.6H69.1l-.2,.6l.2,.3h.4Zm7.5,0h3.7l.2,-.5l-.2,-.4l-.4,-.2l-3.3,.2h-.4l-.1,.4l.1,.5H77Zm7.7,0h3.1l.4,-.2l.2,-.3l-.2,-.4l-.4,-.2H84.7l-.5,.2v.7l.5,.2Zm7.5,0h3.1l.4,-.2l.2,-.3l-.2,-.4l-.4,-.2H92.2l-.3,.2l-.2,.4l.2,.3l.3,.2Zm7.5,0h3.2l.5,-.2v-.7l-.5,-.2H99.7l-.3,.2l-.2,.4l.2,.3l.3,.2Zm7.6,0h3.3l.3,-.2l.2,-.3l-.2,-.4l-.3,-.2h-3.3l-.4,.2l-.2,.4l.2,.3l.4,.2Zm7.5,0h3.3l.3,-.2l.2,-.3l-.2,-.4l-.3,-.2h-3.3l-.4,.2l-.2,.4l.2,.3l.4,.2Zm7.5,0h3.3l.4,-.2l.1,-.3l-.1,-.4l-.4,-.2h-3.3l-.4,.2l-.2,.4l.2,.3l.4,.2Zm7.5,0h3.3l.4,-.2l.2,-.3l-.2,-.4l-.4,-.2h-3.3l-.4,.2l-.1,.4l.1,.3l.4,.2Zm7.5,0h3.3l.4,-.2l.2,-.3l-.2,-.4l-.4,-.2h-3.3l-.3,.2v.7l.3,.2Zm7.7,0h3.1l.4,-.2l.2,-.3l-.2,-.6H145l-.5,.2v.7l.5,.2Zm7.5,-.2H156l.2,-.5l-.2,-.4h-3.8l-.2,.6l.2,.3h.3Z" class="g2"/>
<path d="M160,1053.4h3.7v-.9l-.5,-.2l-3.2,.2h-.3l-.2,.4l.2,.5h.3Zm7.6,0h3.3l.3,-.1l.2,-.4l-.2,-.4l-.3,-.2h-3.3l-.4,.2l-.2,.4l.2,.4l.4,.1Zm7.5,0h3.3l.3,-.1l.2,-.4l-.2,-.4l-.3,-.2h-3.3l-.4,.2l-.2,.4l.2,.4l.4,.1Zm7.5,0h3.3l.4,-.1l.1,-.4l-.1,-.4l-.4,-.2h-3.3l-.4,.2l-.2,.4l.2,.4l.4,.1Zm7.5,0h3.3l.4,-.1l.2,-.4l-.2,-.4l-.4,-.2h-3.3l-.4,.2l-.1,.4l.1,.4l.4,.1Zm7.5,0h3.3l.4,-.1l.2,-.4l-.2,-.4l-.4,-.2h-3.3l-.3,.2v.8l.3,.1Zm7.7,0h3.2l.3,-.1l.2,-.4l-.2,-.4l-.3,-.2h-3.2l-.5,.2v.8l.5,.1Zm7.5,0H216l.3,-.1l.2,-.4l-.2,-.4l-.3,-.2h-3.2l-.3,.2l-.2,.4l.2,.4l.3,.1Zm7.6,0h3.1l.5,-.1v-.8l-.5,-.2h-3.1l-.4,.2l-.2,.4l.2,.4l.4,.1Zm7.5,0h3.3l.3,-.1l.2,-.4l-.2,-.6h-3.6l-.4,.2l-.2,.4l.2,.4l.4,.1Zm7.5,-.1h3.7l.1,-.6l-.1,-.4H235l-.1,.6l.1,.4h.4Zm7.5,0h3.7l.2,-.6l-.2,-.4l-.4,-.1h-3.3l-.4,.1l-.1,.4l.1,.6h.4Zm7.5,0h3.3l.4,-.2l.2,-.4l-.2,-.4l-.4,-.1h-3.3l-.3,.1l-.2,.4l.2,.4l.3,.2Z" class="g2"/>
<path d="M257.9,1053.3h3.4l.3,-.2l.2,-.4l-.2,-.4l-.3,-.1h-3.4l-.3,.1v.8l.3,.2Zm7.7,0h3.2l.3,-.2l.2,-.4l-.2,-.4l-.3,-.1h-3.2l-.5,.1v.8l.5,.2Zm7.6,0h3.1l.4,-.2l.1,-.4l-.1,-.4l-.4,-.1h-3.1l-.4,.1l-.2,.4l.2,.4l.4,.2Zm7.5,0H284l.3,-.2v-.8l-.5,-.1h-3.1l-.4,.1l-.2,.4l.2,.4l.4,.2Zm7.5,0h3.3l.4,-.2l.2,-.4l-.2,-.4l-.4,-.1h-3.3l-.4,.1l-.1,.4l.1,.4l.4,.2Zm7.5,0H299l.4,-.2l.2,-.4l-.2,-.4l-.4,-.1h-3.3l-.4,.1l-.1,.4l.1,.4l.4,.2Zm7.5,0h3.3l.4,-.2l.2,-.4l-.2,-.4l-.4,-.1h-3.3l-.3,.1l-.2,.4l.2,.4l.3,.2Zm7.5,0H314l.4,-.2l.2,-.4l-.2,-.5h-4l-.2,.5l.2,.4l.3,.2Zm7.8,-.2h3.4l.2,-.6l-.2,-.3h-4v.9h.6Zm7.5,0h3.1l.4,-.2l.1,-.4l-.1,-.3l-.4,-.2H326l-.4,.2l-.2,.3l.2,.6h.4Zm7.5,0h3.1l.5,-.2v-.7l-.5,-.2h-3.1l-.4,.2l-.2,.3l.2,.4l.4,.2Zm7.5,0h3.3l.4,-.2v-.7l-.4,-.2H341l-.4,.2l-.2,.3l.2,.4l.4,.2Zm7.5,0h3.3l.4,-.2l.2,-.4l-.2,-.3l-.4,-.2h-3.3l-.3,.2l-.2,.3l.2,.4l.3,.2Z" class="g2"/>
<path d="M356,1053.1h3.3l.4,-.2l.2,-.4l-.2,-.4l-.4,-.1H356l-.3,.1l-.2,.4l.2,.4l.3,.2Zm7.6,0h3.3l.3,-.2l.2,-.4l-.2,-.4l-.3,-.1h-3.3l-.4,.1l-.2,.4l.2,.4l.4,.2Zm7.5,0h3.3l.3,-.2l.2,-.4l-.2,-.4l-.3,-.1h-3.3l-.4,.1l-.2,.4l.2,.4l.4,.2Zm7.7,0h3.1l.4,-.2l.1,-.4l-.1,-.4l-.4,-.1h-3.1l-.6,.1v.8l.6,.2Zm7.5,0h3.1l.4,-.2l.2,-.4l-.2,-.4l-.4,-.1h-3.1l-.4,.1l-.2,.4l.2,.4l.4,.2Zm7.5,0l3.1,-.2h.6v-.9h-4.1l-.2,.5l.2,.4l.4,.2Zm7.5,-.2H405v-.9h-4l-.2,.5l.2,.4h.3Zm7.5,0h3.3l.4,-.2l.2,-.4l-.2,-.3l-.4,-.2h-3.3l-.3,.2l-.2,.3l.2,.6h.3Zm7.6,0h3.3l.3,-.2l.2,-.4l-.2,-.3l-.3,-.2h-3.3l-.4,.2l-.2,.3l.2,.4l.4,.2Zm7.5,0h3.3l.3,-.2l.2,-.4l-.2,-.3l-.3,-.2h-3.3l-.4,.2l-.2,.3l.2,.4l.4,.2Zm7.5,0h3.3l.4,-.2l.1,-.4l-.1,-.3l-.4,-.2h-3.3l-.4,.2l-.2,.3l.2,.4l.4,.2Zm7.7,0h3.1l.4,-.2l.2,-.4l-.2,-.3l-.4,-.2h-3.1l-.6,.2v.7l.6,.2Zm7.5,0h3.1l.4,-.2l.2,-.4l-.2,-.3l-.4,-.2h-3.1l-.4,.2l-.1,.3l.1,.4l.4,.2Z" class="g2"/>
<path d="M454.1,1052.9h3.1l.6,-.2v-.7l-.6,-.2h-3.1l-.3,.2l-.2,.3l.2,.4l.3,.2Zm7.5,0h3.3l.4,-.2v-.7l-.4,-.2h-3.3l-.3,.2l-.2,.3l.2,.4l.3,.2Zm7.5,0h3.3l.4,-.2l.2,-.4l-.2,-.5h-3.7l-.3,.2l-.2,.3l.2,.4l.3,.2Zm7.6,0l3.3,-.2h.3l.2,-.4l-.2,-.5h-4l-.2,.5l.2,.4l.4,.2Zm7.5,-.2h3.6l.2,-.5l-.2,-.4h-4l-.2,.4l.2,.5h.4Zm7.5,0H495l.4,-.2l.1,-.3l-.1,-.4l-.4,-.2h-3.3l-.4,.2l-.2,.4l.2,.5h.4Zm7.7,0h3.1l.4,-.2l.2,-.3l-.2,-.4l-.4,-.2h-3.1l-.6,.2v.7l.6,.2Zm7.5,0H510l.4,-.2l.2,-.3l-.2,-.4l-.4,-.2h-3.1l-.3,.2l-.2,.4l.2,.3l.3,.2Zm7.5,0h3.1l.6,-.2v-.7l-.6,-.2h-3.1l-.3,.2l-.2,.4l.2,.3l.3,.2Zm7.5,0h3.3l.4,-.2l.2,-.3l-.2,-.4l-.4,-.2h-3.3l-.3,.2l-.2,.4l.2,.3l.3,.2Zm7.6,0h3.3l.3,-.2l.2,-.3l-.2,-.4l-.3,-.2h-3.3l-.4,.2l-.2,.4l.2,.3l.4,.2Zm7.5,0h3.3l.3,-.2l.2,-.3l-.2,-.4l-.3,-.2H537l-.4,.2l-.2,.4l.2,.3l.4,.2Zm7.5,0h3.3l.4,-.2l.1,-.3l-.1,-.4l-.4,-.2h-3.3l-.4,.2l-.2,.4l.2,.3l.4,.2Z" class="g2"/>
<path d="M552,1052.7h3.3l.4,-.2l.2,-.4l-.2,-.5H552l-.3,.2v.7l.3,.2Zm7.7,-.2h3.5l.2,-.4l-.2,-.5h-4v.9h.5Zm7.5,0h3.5l.2,-.5l-.2,-.4l-.3,-.2l-3.2,.2h-.3l-.2,.4l.2,.5h.3Zm7.6,0h3.1l.5,-.2v-.7l-.5,-.2h-3.1l-.4,.2l-.2,.4l.2,.5h.4Zm7.5,0h3.3l.3,-.2l.2,-.3l-.2,-.4l-.3,-.2h-3.3l-.4,.2l-.2,.4l.2,.3l.4,.2Zm7.5,0h3.3l.4,-.2l.1,-.3l-.1,-.4l-.4,-.2h-3.3l-.4,.2l-.2,.4l.2,.3l.4,.2Zm7.5,0h3.3l.4,-.2l.2,-.3l-.2,-.4l-.4,-.2h-3.3l-.4,.2l-.1,.4l.1,.3l.4,.2Zm7.5,0h3.3l.4,-.2l.2,-.3l-.2,-.4l-.4,-.2h-3.3l-.3,.2l-.2,.4l.2,.3l.3,.2Zm7.5,0h3.3l.4,-.2l.2,-.3l-.2,-.4l-.4,-.2h-3.3l-.3,.2v.7l.3,.2Zm7.7,0h3.2l.3,-.2l.2,-.3l-.2,-.4l-.3,-.2H620l-.5,.2v.7l.5,.2Zm7.6,0h3.1l.3,-.2l.2,-.3l-.2,-.4l-.3,-.2h-3.1l-.4,.2l-.2,.4l.2,.3l.4,.2Zm7.5,0h3.1l.5,-.2v-.9h-3.6l-.4,.2l-.2,.4l.2,.3l.4,.2Zm7.5,-.2h3.7l.1,-.3l-.1,-.6h-4.1l-.2,.6l.2,.3h.4Z" class="g2"/>
<path d="M650.1,1052.3h3.7l.1,-.5l-.1,-.4l-.4,-.2l-3.3,.2h-.4l-.1,.4l.1,.5h.4Zm7.5,0h3.3l.4,-.1l.2,-.4l-.2,-.4l-.4,-.2h-3.3l-.4,.2l-.1,.4l.1,.4l.4,.1Zm7.5,0h3.3l.4,-.1l.2,-.4l-.2,-.4l-.4,-.2h-3.3l-.3,.2l-.2,.4l.2,.4l.3,.1Zm7.7,0H676l.3,-.1l.2,-.4l-.2,-.4l-.3,-.2h-3.3l-.4,.2v.8l.5,.1Zm7.5,0h3.2l.3,-.1l.2,-.4l-.2,-.4l-.3,-.2h-3.2l-.5,.2v.4l.2,.4l.3,.1Zm7.6,0H691l.5,-.1v-.4l-.2,-.4l-.3,-.2h-3.1l-.4,.2l-.2,.4l.2,.4l.4,.1Zm7.5,0h3.3l.4,-.1v-.8l-.6,-.2h-3.1l-.4,.2l-.2,.4l.2,.4l.4,.1Zm7.5,0h3.3l.4,-.1l.1,-.4l-.1,-.4l-.4,-.2h-3.3l-.4,.2l-.1,.4l.1,.4l.4,.1Zm7.5,0h3.3l.4,-.1l.2,-.4l-.2,-.4l-.4,-.2h-3.3l-.4,.2l-.1,.4l.1,.4l.4,.1Zm7.5,0h3.3l.4,-.1l.2,-.4l-.2,-.6h-3.7l-.3,.2l-.2,.4l.2,.4l.3,.1Zm7.6,-.1h3.6l.2,-.6l-.2,-.4h-4l-.2,.6l.2,.4h.4Zm7.7,0h3.4l.2,-.6l-.2,-.4l-.3,-.1l-3.1,.1h-.6v1h.6Zm7.5,0h3.1l.3,-.2l.2,-.4l-.2,-.4l-.3,-.1h-3.1l-.4,.1l-.2,.4l.2,.4l.4,.2Z" class="g2"/>
<path d="M748.2,1052.1h3.1l.6,-.1v-.8l-.6,-.2h-3.1l-.4,.2l-.2,.4l.2,.4l.4,.1Zm7.5,0H759l.4,-.1v-.8l-.4,-.2h-3.3l-.4,.2l-.1,.4l.1,.4l.4,.1Zm7.5,0h3.3l.4,-.1l.2,-.4l-.2,-.4l-.4,-.2h-3.3l-.3,.2l-.2,.4l.2,.4l.3,.1Zm7.5,0H774l.4,-.1l.2,-.4l-.2,-.4l-.4,-.2h-3.3l-.3,.2l-.2,.4l.2,.4l.3,.1Zm7.6,0h3.3l.3,-.1l.2,-.4l-.2,-.4l-.3,-.2h-3.3l-.4,.2l-.2,.4l.2,.4l.4,.1Zm7.5,0h3.3l.3,-.1l.2,-.4l-.2,-.4l-.3,-.2h-3.3l-.4,.2l-.2,.4l.2,.4l.4,.1Zm7.7,0h3.1l.4,-.1l.1,-.4l-.1,-.4l-.4,-.2h-3.1l-.6,.2v.8l.6,.1Zm7.5,0h3.1l.4,-.1l.2,-.4l-.2,-.6h-3.9l-.2,.6l.2,.4l.4,.1Zm7.5,-.1h3.7v-1h-4.1l-.1,.6l.1,.4h.4Zm7.5,0h3.7v-1l-.4,-.1H816l-.3,.1l-.2,.4l.2,.6h.3Zm7.5,0h3.3l.4,-.2l.2,-.4l-.2,-.4l-.4,-.1h-3.3l-.3,.1l-.2,.4l.2,.4l.3,.2Zm7.6,0h3.3l.3,-.2l.2,-.4l-.2,-.4l-.3,-.1h-3.3l-.4,.1l-.2,.4l.2,.4l.4,.2Zm7.5,0h3.3l.3,-.2l.2,-.4l-.2,-.4l-.3,-.1h-3.3l-.4,.1l-.2,.4l.2,.4l.4,.2Zm7.5,0h3.3l.4,-.2l.1,-.4l-.1,-.4l-.4,-.1h-3.3l-.4,.1l-.2,.4l.2,.4l.4,.2Zm7.7,0h3.1l.4,-.2l.2,-.4l-.2,-.4l-.4,-.1h-3.1l-.6,.1v.8l.6,.2Zm7.5,0h3.1l.4,-.2l.2,-.4l-.2,-.4l-.4,-.1h-3.1l-.4,.1l-.1,.4l.1,.4l.4,.2Zm7.5,0h3.1l.6,-.2v-.8l-.6,-.1h-3.1l-.3,.1l-.2,.4l.2,.4l.3,.2Zm7.5,0h3.3l.4,-.2l.2,-.4l-.2,-.4l-.4,-.1h-3.3l-.3,.1l-.2,.4l.2,.4l.3,.2Z" class="g2"/>
<path d="M340.1,845.9h3.5l.1,.5l-.1,.4l-.4,.2h-3.1l-.6,-.2v-.9h.6Zm7.5,0h3.5l.2,.5l-.2,.4l-.4,.2h-3.1l-.4,-.2l-.2,-.4l.2,-.5h.4Zm7.5,0h3.7v.9l-.6,.2h-3.1l-.4,-.2l-.1,-.4l.1,-.5h.4Zm7.5,0h3.7v.9l-.4,.2h-3.3l-.3,-.2l-.2,-.4l.2,-.5h.3Zm7.5,0h3.7l.2,.5l-.2,.4l-.4,.2h-3.3l-.3,-.2l-.2,-.4l.2,-.5h.3Zm7.6,0h3.6l.2,.5l-.2,.4l-.3,.2h-3.3l-.4,-.2l-.2,-.4l.2,-.5h.4Zm7.5,0h3.6l.2,.5l-.2,.4l-.3,.2h-3.3l-.4,-.2l-.2,-.4l.2,-.5h.4Zm7.5,0h3.7l.1,.5l-.1,.4l-.4,.2h-3.3l-.4,-.2l-.2,-.4l.2,-.5h.4Zm7.7,0h3.5l.2,.5l-.2,.4l-.4,.2h-3.1l-.5,-.2v-.9h.5Z" class="g2"/>
<path d="M407.9,845.9h3.5l.2,.5l-.2,.4l-.4,.2h-3.1l-.3,-.2l-.2,-.4l.2,-.5h.3Zm7.5,0h3.7v.9l-.6,.2h-3.1l-.3,-.2l-.2,-.4l.2,-.5h.3Zm7.5,0h3.7v.9l-.3,.2h-3.4l-.3,-.2l-.2,-.4l.2,-.5h.3Zm7.6,0h3.6l.2,.5l-.2,.4l-.3,.2h-3.3l-.4,-.2l-.2,-.4l.2,-.5h.4Zm7.5,0h3.6l.2,.5l-.2,.4l-.3,.2H438l-.4,-.2l-.2,-.4l.2,-.5h.4Zm7.5,0h3.7l.1,.5l-.1,.4l-.4,.2h-3.3l-.4,-.2l-.2,-.4l.2,-.5h.4Zm7.5,0h3.7l.2,.5l-.2,.4l-.4,.2H453l-.3,-.2l-.2,-.4l.2,-.5h.3Zm7.7,0h3.5l.2,.5l-.2,.4l-.4,.2h-3.1l-.5,-.2v-.9h.5Zm7.5,0h3.5l.2,.5l-.2,.4l-.4,.2h-3.1l-.3,-.2l-.2,-.4l.2,-.5h.3Z" class="g2"/>
<path d="M475.8,845.9h3.6v.9l-.5,.2h-3.1l-.4,-.2l-.2,-.4l.2,-.5h.4Zm7.5,0h3.6v.9l-.3,.2h-3.3l-.4,-.2l-.2,-.4l.2,-.5h.4Zm7.5,0h3.7l.1,.5l-.1,.4l-.4,.2h-3.3l-.4,-.2l-.2,-.4l.2,-.5h.4Zm7.5,0H502l.2,.5l-.2,.4l-.4,.2h-3.3l-.4,-.2l-.1,-.4l.1,-.5h.4Zm7.5,0h3.7l.2,.5l-.2,.4l-.4,.2h-3.3l-.3,-.2l-.2,-.4l.2,-.5h.3Zm7.5,0H517l.2,.5l-.2,.4l-.4,.2h-3.3l-.3,-.2l-.2,-.4l.2,-.5h.3Zm7.7,0h3.5l.2,.5l-.2,.4l-.3,.2H521l-.5,-.2v-.9h.5Zm7.6,0H532l.2,.5l-.2,.4l-.3,.2h-3.1l-.4,-.2l-.2,-.4l.2,-.5h.4Zm7.5,0h3.6v.9l-.5,.2h-3.1l-.4,-.2l-.2,-.4l.2,-.5h.4Z" class="g2"/>
<path d="M543.6,845.9h3.6l.2,.5l-.2,.4l-.3,.2h-3.3l-.4,-.2l-.2,-.4l.2,-.5h.4Zm7.5,0h3.7l.1,.5l-.1,.4l-.4,.2h-3.3l-.4,-.2l-.2,-.4l.2,-.5h.4Zm7.5,0h3.7l.2,.5l-.2,.4l-.4,.2h-3.3l-.4,-.2l-.1,-.4l.1,-.5h.4Zm7.5,0h3.7l.2,.5l-.2,.4l-.4,.2h-3.3l-.3,-.2l-.2,-.4l.2,-.5h.3Zm7.5,0h3.7l.2,.5l-.2,.4l-.4,.2h-3.3l-.3,-.2v-.9h.3Zm7.7,0h3.5l.2,.5l-.2,.4l-.3,.2h-3.2l-.5,-.2v-.9h.5Zm7.6,0h3.5l.1,.5l-.1,.4l-.4,.2h-3.1l-.4,-.2l-.2,-.4l.2,-.5h.4Zm7.5,0H600v.9l-.5,.2h-3.1l-.4,-.2l-.2,-.4l.2,-.5h.4Zm7.5,0h3.7l.1,.5l-.1,.4l-.4,.2h-3.3l-.4,-.2l-.2,-.4l.2,-.5h.4Z" class="g2"/>
<path d="M611.4,845.9h3.7l.2,.5l-.2,.4l-.4,.2h-3.3l-.4,-.2l-.1,-.4l.1,-.5h.4Zm7.5,0h3.7l.2,.5l-.2,.4l-.4,.2h-3.3l-.3,-.2l-.2,-.4l.2,-.5h.3Zm7.5,0h3.7l.2,.5l-.2,.4l-.4,.2h-3.3l-.3,-.2l-.2,-.4l.2,-.5h.3Zm7.6,0h3.6l.2,.5l-.2,.4l-.3,.2H634l-.4,-.2v-.9h.4Zm7.7,0h3.4l.2,.5l-.2,.4l-.3,.2h-3.1l-.6,-.2v-.9h.6Zm7.5,0h3.5l.1,.5l-.1,.4l-.4,.2h-3.1l-.4,-.2l-.2,-.4l.2,-.5h.4Zm7.5,0h3.7v.9l-.6,.2h-3.1l-.4,-.2l-.2,-.4l.2,-.5h.4Zm7.5,0h3.7l.2,.5l-.2,.4l-.4,.2h-3.3l-.4,-.2l-.1,-.4l.1,-.5h.4Zm7.5,0h3.7l.2,.5l-.2,.4l-.4,.2h-3.3l-.3,-.2l-.2,-.4l.2,-.5h.3Z" class="g2"/>
<path d="M679.2,845.9h3.7l.2,.5l-.2,.4l-.4,.2h-3.3l-.3,-.2l-.2,-.4l.2,-.5h.3Zm7.6,0h3.6l.2,.5l-.2,.4l-.3,.2h-3.3l-.4,-.2l-.2,-.4l.2,-.5h.4Zm7.5,0h3.6l.2,.5l-.2,.4l-.3,.2h-3.3l-.4,-.2v-.9h.4Zm7.7,0h3.5l.1,.5l-.1,.4l-.4,.2H702l-.4,-.2l-.2,-.4l.2,-.5h.4Zm7.5,0h3.7v.9l-.6,.2h-3.1l-.4,-.2l-.2,-.4l.2,-.5h.4Zm7.5,0h3.7v.9l-.4,.2H717l-.4,-.2l-.1,-.4l.1,-.5h.4Zm7.5,0h3.7l.2,.5l-.2,.4l-.4,.2h-3.3l-.3,-.2l-.2,-.4l.2,-.5h.3Zm7.5,0h3.7l.2,.5l-.2,.4l-.4,.2H732l-.3,-.2l-.2,-.4l.2,-.5h.3Zm7.6,0h3.6l.2,.5l-.2,.4l-.3,.2h-3.3l-.4,-.2l-.2,-.4l.2,-.5h.4Z" class="g2"/>
<path d="M747.1,845.9h3.6l.2,.5l-.2,.4l-.3,.2h-3.3l-.4,-.2l-.2,-.4l.2,-.5h.4Zm7.7,0h3.5l.2,.5l-.2,.4l-.4,.2h-3.1l-.6,-.2v-.9h.6Zm7.5,0h3.5l.2,.5l-.2,.4l-.4,.2h-3.1l-.4,-.2l-.1,-.4l.1,-.5h.4Zm7.5,0h3.7v.9l-.6,.2h-3.1l-.3,-.2l-.2,-.4l.2,-.5h.3Zm7.5,0H781v.9l-.4,.2h-3.3l-.3,-.2l-.2,-.4l.2,-.5h.3Zm7.5,0h3.7l.2,.5l-.2,.4l-.3,.2h-3.4l-.3,-.2l-.2,-.4l.2,-.5h.3Zm7.6,0H796l.2,.5l-.2,.4l-.3,.2h-3.3l-.4,-.2l-.2,-.4l.2,-.5h.4Zm7.5,0h3.7l.1,.5l-.1,.4l-.4,.2h-3.3l-.4,-.2l-.2,-.4l.2,-.5h.4Zm7.5,0h3.7l.2,.5l-.2,.4l-.4,.2h-3.3l-.4,-.2l-.2,-.4l.2,-.5h.4Z" class="g2"/>
<path d="M815.1,845.9h3.5l.2,.5l-.2,.4l-.4,.2h-3.1l-.5,-.2v-.9h.5Zm7.5,0h3.5l.2,.5l-.2,.4l-.4,.2h-3.1l-.3,-.2l-.2,-.4l.2,-.5h.3Zm7.5,0h3.7v.9l-.5,.2h-3.2l-.3,-.2l-.2,-.4l.2,-.5h.3Zm7.6,0h3.6v.9l-.3,.2h-3.3l-.4,-.2l-.2,-.4l.2,-.5h.4Zm7.5,0h3.6l.2,.5l-.2,.4l-.3,.2h-3.3l-.4,-.2l-.2,-.4l.2,-.5h.4Zm7.5,0h3.7l.1,.5l-.1,.4l-.4,.2h-3.3l-.4,-.2l-.2,-.4l.2,-.5h.4Zm7.5,0h3.7l.2,.5l-.2,.4l-.4,.2h-3.3l-.4,-.2l-.2,-.4l.2,-.5h.4Zm7.5,0h3.7l.2,.5l-.2,.4l-.4,.2h-3.3l-.3,-.2l-.2,-.4l.2,-.5h.3Zm7.7,0h3.5l.2,.5l-.2,.4l-.4,.2h-3.1l-.5,-.2v-.9h.5Z" class="g2"/>
<path d="M340.1,716.7h3.5l.1,.5l-.1,.4h-4.1v-.9h.6Zm7.5,0h3.5l.2,.5l-.2,.4h-3.9l-.2,-.4l.2,-.5h.4Zm7.5,0h3.7v.9h-4.1l-.1,-.4l.1,-.5h.4Zm7.5,0h3.7v.9h-4l-.2,-.4l.2,-.5h.3Zm7.5,0h3.7l.2,.5l-.2,.4h-4l-.2,-.4l.2,-.5h.3Zm7.6,0h3.6l.2,.5l-.2,.4h-4l-.2,-.4l.2,-.5h.4Zm7.5,0h3.6l.2,.5l-.2,.4h-4l-.2,-.4l.2,-.5h.4Zm7.5,0h3.7l.1,.5l-.1,.4h-4.1l-.2,-.4l.2,-.5h.4Zm7.7,0h3.5l.2,.5l-.2,.4h-4v-.9h.5Z" class="g2"/>
<path d="M407.9,716.7h3.5l.2,.5l-.2,.4h-3.8l-.2,-.4l.2,-.5h.3Zm7.5,0h3.7v.9h-4l-.2,-.4l.2,-.5h.3Zm7.5,0h3.7v.9h-4l-.2,-.4l.2,-.5h.3Zm7.6,0h3.6l.2,.5l-.2,.4h-4l-.2,-.4l.2,-.5h.4Zm7.5,0h3.6l.2,.5l-.2,.4h-4l-.2,-.4l.2,-.5h.4Zm7.5,0h3.7l.1,.5l-.1,.4h-4.1l-.2,-.4l.2,-.5h.4Zm7.5,0h3.7l.2,.5l-.2,.4h-4l-.2,-.4l.2,-.5h.3Zm7.7,0h3.5l.2,.5l-.2,.4h-4v-.9h.5Zm7.5,0h3.5l.2,.5l-.2,.4h-3.8l-.2,-.4l.2,-.5h.3Z" class="g2"/>
<path d="M475.8,716.7h3.6v.9h-4l-.2,-.4l.2,-.5h.4Zm7.5,0h3.6v.9h-4l-.2,-.4l.2,-.5h.4Zm7.5,0h3.7l.1,.5l-.1,.4h-4.1l-.2,-.4l.2,-.5h.4Zm7.5,0H502l.2,.5l-.2,.4h-4.1l-.1,-.4l.1,-.5h.4Zm7.5,0h3.7l.2,.5l-.2,.4h-4l-.2,-.4l.2,-.5h.3Zm7.5,0H517l.2,.5l-.2,.4h-4l-.2,-.4l.2,-.5h.3Zm7.7,0h3.5l.2,.5l-.2,.4h-4v-.9h.5Zm7.6,0H532l.2,.5l-.2,.4h-3.8l-.2,-.4l.2,-.5h.4Zm7.5,0h3.6v.9h-4l-.2,-.4l.2,-.5h.4Z" class="g2"/>
<path d="M543.6,716.7h3.6l.2,.5l-.2,.4h-4l-.2,-.4l.2,-.5h.4Zm7.5,0h3.7l.1,.5l-.1,.4h-4.1l-.2,-.4l.2,-.5h.4Zm7.5,0h3.7l.2,.5l-.2,.4h-4.1l-.1,-.4l.1,-.5h.4Zm7.5,0h3.7l.2,.5l-.2,.4h-4l-.2,-.4l.2,-.5h.3Zm7.5,0h3.7l.2,.5l-.2,.4h-4v-.9h.3Zm7.7,0h3.5l.2,.5l-.2,.4h-4v-.9h.5Zm7.6,0h3.5l.1,.5l-.1,.4h-3.9l-.2,-.4l.2,-.5h.4Zm7.5,0H600v.9h-4l-.2,-.4l.2,-.5h.4Zm7.5,0h3.7l.1,.5l-.1,.4h-4.1l-.2,-.4l.2,-.5h.4Z" class="g2"/>
<path d="M611.4,716.7h3.7l.2,.5l-.2,.4H611l-.1,-.4l.1,-.5h.4Zm7.5,0h3.7l.2,.5l-.2,.4h-4l-.2,-.4l.2,-.5h.3Zm7.5,0h3.7l.2,.5l-.2,.4h-4l-.2,-.4l.2,-.5h.3Zm7.6,0h3.6l.2,.5l-.2,.4h-4v-.9h.4Zm7.7,0h3.4l.2,.5l-.2,.4h-4v-.9h.6Zm7.5,0h3.5l.1,.5l-.1,.4h-3.9l-.2,-.4l.2,-.5h.4Zm7.5,0h3.7v.9h-4.1l-.2,-.4l.2,-.5h.4Zm7.5,0h3.7l.2,.5l-.2,.4h-4.1l-.1,-.4l.1,-.5h.4Zm7.5,0h3.7l.2,.5l-.2,.4h-4l-.2,-.4l.2,-.5h.3Z" class="g2"/>
<path d="M679.2,716.7h3.7l.2,.5l-.2,.4h-4l-.2,-.4l.2,-.5h.3Zm7.6,0h3.6l.2,.5l-.2,.4h-4l-.2,-.4l.2,-.5h.4Zm7.5,0h3.6l.2,.5l-.2,.4h-4v-.9h.4Zm7.7,0h3.5l.1,.5l-.1,.4h-3.9l-.2,-.4l.2,-.5h.4Zm7.5,0h3.7v.9h-4.1l-.2,-.4l.2,-.5h.4Zm7.5,0h3.7v.9h-4.1l-.1,-.4l.1,-.5h.4Zm7.5,0h3.7l.2,.5l-.2,.4h-4l-.2,-.4l.2,-.5h.3Zm7.5,0h3.7l.2,.5l-.2,.4h-4l-.2,-.4l.2,-.5h.3Zm7.6,0h3.6l.2,.5l-.2,.4h-4l-.2,-.4l.2,-.5h.4Z" class="g2"/>
<path d="M747.1,716.7h3.6l.2,.5l-.2,.4h-4l-.2,-.4l.2,-.5h.4Zm7.7,0h3.5l.2,.5l-.2,.4h-4.1v-.9h.6Zm7.5,0h3.5l.2,.5l-.2,.4h-3.9l-.1,-.4l.1,-.5h.4Zm7.5,0h3.7v.9h-4l-.2,-.4l.2,-.5h.3Zm7.5,0H781v.9h-4l-.2,-.4l.2,-.5h.3Zm7.5,0h3.7l.2,.5l-.2,.4h-4l-.2,-.4l.2,-.5h.3Zm7.6,0H796l.2,.5l-.2,.4h-4l-.2,-.4l.2,-.5h.4Zm7.5,0h3.7l.1,.5l-.1,.4h-4.1l-.2,-.4l.2,-.5h.4Zm7.5,0h3.7l.2,.5l-.2,.4H807l-.2,-.4l.2,-.5h.4Z" class="g2"/>
<path d="M815.1,716.7h3.5l.2,.5l-.2,.4h-4v-.9h.5Zm7.5,0h3.5l.2,.5l-.2,.4h-3.8l-.2,-.4l.2,-.5h.3Zm7.5,0h3.7v.9h-4l-.2,-.4l.2,-.5h.3Zm7.6,0h3.6v.9h-4l-.2,-.4l.2,-.5h.4Zm7.5,0h3.6l.2,.5l-.2,.4h-4l-.2,-.4l.2,-.5h.4Zm7.5,0h3.7l.1,.5l-.1,.4h-4.1l-.2,-.4l.2,-.5h.4Zm7.5,0h3.7l.2,.5l-.2,.4h-4.1l-.2,-.4l.2,-.5h.4Zm7.5,0h3.7l.2,.5l-.2,.4h-4l-.2,-.4l.2,-.5h.3Zm7.7,0h3.5l.2,.5l-.2,.4h-4v-.9h.5Z" class="g2"/>
<path d="M340.1,535.7h3.5l.1,.4l-.1,.5h-4.1v-.9h.6Zm7.5,0h3.5l.2,.4l-.2,.5h-3.9l-.2,-.5l.2,-.4h.4Zm7.5,0h3.7v.9h-4.1l-.1,-.5l.1,-.4h.4Zm7.5,0h3.7v.9h-4l-.2,-.5l.2,-.4h.3Zm7.5,0h3.7l.2,.4l-.2,.5h-4l-.2,-.5l.2,-.4h.3Zm7.6,0h3.6l.2,.4l-.2,.5h-4l-.2,-.5l.2,-.4h.4Zm7.5,0h3.6l.2,.4l-.2,.5h-4l-.2,-.5l.2,-.4h.4Zm7.5,0h3.7l.1,.4l-.1,.5h-4.1l-.2,-.5l.2,-.4h.4Zm7.7,0h3.5l.2,.4l-.2,.5h-4v-.9h.5Z" class="g2"/>
<path d="M407.9,535.7h3.5l.2,.4l-.2,.5h-3.8l-.2,-.5l.2,-.4h.3Zm7.5,0h3.7v.9h-4l-.2,-.5l.2,-.4h.3Zm7.5,0h3.7v.9h-4l-.2,-.5l.2,-.4h.3Zm7.6,0h3.6l.2,.4l-.2,.5h-4l-.2,-.5l.2,-.4h.4Zm7.5,0h3.6l.2,.4l-.2,.5h-4l-.2,-.5l.2,-.4h.4Zm7.5,0h3.7l.1,.4l-.1,.5h-4.1l-.2,-.5l.2,-.4h.4Zm7.5,0h3.7l.2,.4l-.2,.5h-4l-.2,-.5l.2,-.4h.3Zm7.7,0h3.5l.2,.4l-.2,.5h-4v-.9h.5Zm7.5,0h3.5l.2,.4l-.2,.5h-3.8l-.2,-.5l.2,-.4h.3Z" class="g2"/>
<path d="M475.8,535.7h3.6v.9h-4l-.2,-.5l.2,-.4h.4Zm7.5,0h3.6v.9h-4l-.2,-.5l.2,-.4h.4Zm7.5,0h3.7l.1,.4l-.1,.5h-4.1l-.2,-.5l.2,-.4h.4Zm7.5,0H502l.2,.4l-.2,.5h-4.1l-.1,-.5l.1,-.4h.4Zm7.5,0h3.7l.2,.4l-.2,.5h-4l-.2,-.5l.2,-.4h.3Zm7.5,0H517l.2,.4l-.2,.5h-4l-.2,-.5l.2,-.4h.3Zm7.7,0h3.5l.2,.4l-.2,.5h-4v-.9h.5Zm7.6,0H532l.2,.4l-.2,.5h-3.8l-.2,-.5l.2,-.4h.4Zm7.5,0h3.6v.9h-4l-.2,-.5l.2,-.4h.4Z" class="g2"/>
<path d="M543.6,535.7h3.6l.2,.4l-.2,.5h-4l-.2,-.5l.2,-.4h.4Zm7.5,0h3.7l.1,.4l-.1,.5h-4.1l-.2,-.5l.2,-.4h.4Zm7.5,0h3.7l.2,.4l-.2,.5h-4.1l-.1,-.5l.1,-.4h.4Zm7.5,0h3.7l.2,.4l-.2,.5h-4l-.2,-.5l.2,-.4h.3Zm7.5,0h3.7l.2,.4l-.2,.5h-4v-.9h.3Zm7.7,0h3.5l.2,.4l-.2,.5h-4v-.9h.5Zm7.6,0h3.5l.1,.4l-.1,.5h-3.9l-.2,-.5l.2,-.4h.4Zm7.5,0H600v.9h-4l-.2,-.5l.2,-.4h.4Zm7.5,0h3.7l.1,.4l-.1,.5h-4.1l-.2,-.5l.2,-.4h.4Z" class="g2"/>
<path d="M611.4,535.7h3.7l.2,.4l-.2,.5H611l-.1,-.5l.1,-.4h.4Zm7.5,0h3.7l.2,.4l-.2,.5h-4l-.2,-.5l.2,-.4h.3Zm7.5,0h3.7l.2,.4l-.2,.5h-4l-.2,-.5l.2,-.4h.3Zm7.6,0h3.6l.2,.4l-.2,.5h-4v-.9h.4Zm7.7,0h3.4l.2,.4l-.2,.5h-4v-.9h.6Zm7.5,0h3.5l.1,.4l-.1,.5h-3.9l-.2,-.5l.2,-.4h.4Zm7.5,0h3.7v.9h-4.1l-.2,-.5l.2,-.4h.4Zm7.5,0h3.7l.2,.4l-.2,.5h-4.1l-.1,-.5l.1,-.4h.4Zm7.5,0h3.7l.2,.4l-.2,.5h-4l-.2,-.5l.2,-.4h.3Z" class="g2"/>
<path d="M679.2,535.7h3.7l.2,.4l-.2,.5h-4l-.2,-.5l.2,-.4h.3Zm7.6,0h3.6l.2,.4l-.2,.5h-4l-.2,-.5l.2,-.4h.4Zm7.5,0h3.6l.2,.4l-.2,.5h-4v-.9h.4Zm7.7,0h3.5l.1,.4l-.1,.5h-3.9l-.2,-.5l.2,-.4h.4Zm7.5,0h3.7v.9h-4.1l-.2,-.5l.2,-.4h.4Zm7.5,0h3.7v.9h-4.1l-.1,-.5l.1,-.4h.4Zm7.5,0h3.7l.2,.4l-.2,.5h-4l-.2,-.5l.2,-.4h.3Zm7.5,0h3.7l.2,.4l-.2,.5h-4l-.2,-.5l.2,-.4h.3Zm7.6,0h3.6l.2,.4l-.2,.5h-4l-.2,-.5l.2,-.4h.4Z" class="g2"/>
<path d="M747.1,535.7h3.6l.2,.4l-.2,.5h-4l-.2,-.5l.2,-.4h.4Zm7.7,0h3.5l.2,.4l-.2,.5h-4.1v-.9h.6Zm7.5,0h3.5l.2,.4l-.2,.5h-3.9l-.1,-.5l.1,-.4h.4Zm7.5,0h3.7v.9h-4l-.2,-.5l.2,-.4h.3Zm7.5,0H781v.9h-4l-.2,-.5l.2,-.4h.3Zm7.5,0h3.7l.2,.4l-.2,.5h-4l-.2,-.5l.2,-.4h.3Zm7.6,0H796l.2,.4l-.2,.5h-4l-.2,-.5l.2,-.4h.4Zm7.5,0h3.7l.1,.4l-.1,.5h-4.1l-.2,-.5l.2,-.4h.4Zm7.5,0h3.7l.2,.4l-.2,.5H807l-.2,-.5l.2,-.4h.4Z" class="g2"/>
<path d="M815.1,535.7h3.5l.2,.4l-.2,.5h-4v-.9h.5Zm7.5,0h3.5l.2,.4l-.2,.5h-3.8l-.2,-.5l.2,-.4h.3Zm7.5,0h3.7v.9h-4l-.2,-.5l.2,-.4h.3Zm7.6,0h3.6v.9h-4l-.2,-.5l.2,-.4h.4Zm7.5,0h3.6l.2,.4l-.2,.5h-4l-.2,-.5l.2,-.4h.4Zm7.5,0h3.7l.1,.4l-.1,.5h-4.1l-.2,-.5l.2,-.4h.4Zm7.5,0h3.7l.2,.4l-.2,.5h-4.1l-.2,-.5l.2,-.4h.4Zm7.5,0h3.7l.2,.4l-.2,.5h-4l-.2,-.5l.2,-.4h.3Zm7.7,0h3.5l.2,.4l-.2,.5h-4v-.9h.5Z" class="g2"/>
<path d="M340.1,380.4h3.1l.4,.2l.1,.4l-.1,.5h-4.1v-.9l.6,-.2Zm7.5,0h3.1l.4,.2l.2,.4l-.2,.5h-3.9L347,381l.2,-.4l.4,-.2Zm7.5,0h3.1l.6,.2v.9h-4.1l-.1,-.5l.1,-.4l.4,-.2Zm7.5,0h3.3l.4,.2v.9h-4l-.2,-.5l.2,-.4l.3,-.2Zm7.5,0h3.3l.4,.2l.2,.4l-.2,.5h-4l-.2,-.5l.2,-.4l.3,-.2Zm7.6,0H381l.3,.2l.2,.4l-.2,.5h-4l-.2,-.5l.2,-.4l.4,-.2Zm7.5,0h3.3l.3,.2l.2,.4l-.2,.5h-4l-.2,-.5l.2,-.4l.4,-.2Zm7.5,0H396l.4,.2l.1,.4l-.1,.5h-4.1l-.2,-.5l.2,-.4l.4,-.2Zm7.7,0h3.1l.4,.2l.2,.4l-.2,.5h-4v-.9l.5,-.2Z" class="g2"/>
<path d="M407.9,380.4H411l.4,.2l.2,.4l-.2,.5h-3.8l-.2,-.5l.2,-.4l.3,-.2Zm7.5,0h3.1l.6,.2v.9h-4l-.2,-.5l.2,-.4l.3,-.2Zm7.5,0h3.4l.3,.2v.9h-4l-.2,-.5l.2,-.4l.3,-.2Zm7.6,0h3.3l.3,.2l.2,.4l-.2,.5h-4l-.2,-.5l.2,-.4l.4,-.2Zm7.5,0h3.3l.3,.2l.2,.4l-.2,.5h-4l-.2,-.5l.2,-.4l.4,-.2Zm7.5,0h3.3l.4,.2l.1,.4l-.1,.5h-4.1l-.2,-.5l.2,-.4l.4,-.2Zm7.5,0h3.3l.4,.2l.2,.4l-.2,.5h-4l-.2,-.5l.2,-.4l.3,-.2Zm7.7,0h3.1l.4,.2l.2,.4l-.2,.5h-4v-.9l.5,-.2Zm7.5,0h3.1l.4,.2l.2,.4l-.2,.5h-3.8l-.2,-.5l.2,-.4l.3,-.2Z" class="g2"/>
<path d="M475.8,380.4h3.1l.5,.2v.9h-4l-.2,-.5l.2,-.4l.4,-.2Zm7.5,0h3.3l.3,.2v.9h-4l-.2,-.5l.2,-.4l.4,-.2Zm7.5,0h3.3l.4,.2l.1,.4l-.1,.5h-4.1l-.2,-.5l.2,-.4l.4,-.2Zm7.5,0h3.3l.4,.2l.2,.4l-.2,.5h-4.1l-.1,-.5l.1,-.4l.4,-.2Zm7.5,0h3.3l.4,.2l.2,.4l-.2,.5h-4l-.2,-.5l.2,-.4l.3,-.2Zm7.5,0h3.3l.4,.2l.2,.4l-.2,.5h-4l-.2,-.5l.2,-.4l.3,-.2Zm7.7,0h3.2l.3,.2l.2,.4l-.2,.5h-4v-.9l.5,-.2Zm7.6,0h3.1l.3,.2l.2,.4l-.2,.5h-3.8L528,381l.2,-.4l.4,-.2Zm7.5,0h3.1l.5,.2v.9h-4l-.2,-.5l.2,-.4l.4,-.2Z" class="g2"/>
<path d="M543.6,380.4h3.3l.3,.2l.2,.4l-.2,.5h-4L543,381l.2,-.4l.4,-.2Zm7.5,0h3.3l.4,.2l.1,.4l-.1,.5h-4.1l-.2,-.5l.2,-.4l.4,-.2Zm7.5,0h3.3l.4,.2l.2,.4l-.2,.5h-4.1l-.1,-.5l.1,-.4l.4,-.2Zm7.5,0h3.3l.4,.2l.2,.4l-.2,.5h-4l-.2,-.5l.2,-.4l.3,-.2Zm7.5,0h3.3l.4,.2l.2,.4l-.2,.5h-4v-.9l.3,-.2Zm7.7,0h3.2l.3,.2l.2,.4l-.2,.5h-4v-.9l.5,-.2Zm7.6,0H592l.4,.2l.1,.4l-.1,.5h-3.9l-.2,-.5l.2,-.4l.4,-.2Zm7.5,0h3.1l.5,.2v.9h-4l-.2,-.5l.2,-.4l.4,-.2Zm7.5,0h3.3l.4,.2l.1,.4l-.1,.5h-4.1l-.2,-.5l.2,-.4l.4,-.2Z" class="g2"/>
<path d="M611.4,380.4h3.3l.4,.2l.2,.4l-.2,.5H611l-.1,-.5l.1,-.4l.4,-.2Zm7.5,0h3.3l.4,.2l.2,.4l-.2,.5h-4l-.2,-.5l.2,-.4l.3,-.2Zm7.5,0h3.3l.4,.2l.2,.4l-.2,.5h-4l-.2,-.5l.2,-.4l.3,-.2Zm7.6,0h3.3l.3,.2l.2,.4l-.2,.5h-4v-.9l.4,-.2Zm7.7,0h3.1l.3,.2l.2,.4l-.2,.5h-4v-.9l.6,-.2Zm7.5,0h3.1l.4,.2l.1,.4l-.1,.5h-3.9l-.2,-.5l.2,-.4l.4,-.2Zm7.5,0h3.1l.6,.2v.9h-4.1l-.2,-.5l.2,-.4l.4,-.2Zm7.5,0h3.3l.4,.2l.2,.4l-.2,.5h-4.1l-.1,-.5l.1,-.4l.4,-.2Zm7.5,0H675l.4,.2l.2,.4l-.2,.5h-4l-.2,-.5l.2,-.4l.3,-.2Z" class="g2"/>
<path d="M679.2,380.4h3.3l.4,.2l.2,.4l-.2,.5h-4l-.2,-.5l.2,-.4l.3,-.2Zm7.6,0h3.3l.3,.2l.2,.4l-.2,.5h-4l-.2,-.5l.2,-.4l.4,-.2Zm7.5,0h3.3l.3,.2l.2,.4l-.2,.5h-4v-.9l.4,-.2Zm7.7,0h3.1l.4,.2l.1,.4l-.1,.5h-3.9l-.2,-.5l.2,-.4l.4,-.2Zm7.5,0h3.1l.6,.2v.9h-4.1l-.2,-.5l.2,-.4l.4,-.2Zm7.5,0h3.3l.4,.2v.9h-4.1l-.1,-.5l.1,-.4l.4,-.2Zm7.5,0h3.3l.4,.2l.2,.4l-.2,.5h-4L724,381l.2,-.4l.3,-.2Zm7.5,0h3.3l.4,.2l.2,.4l-.2,.5h-4l-.2,-.5l.2,-.4l.3,-.2Zm7.6,0h3.3l.3,.2l.2,.4l-.2,.5h-4L739,381l.2,-.4l.4,-.2Z" class="g2"/>
<path d="M747.1,380.4h3.3l.3,.2l.2,.4l-.2,.5h-4l-.2,-.5l.2,-.4l.4,-.2Zm7.7,0h3.1l.4,.2l.2,.4l-.2,.5h-4.1v-.9l.6,-.2Zm7.5,0h3.1l.4,.2l.2,.4l-.2,.5h-3.9l-.1,-.5l.1,-.4l.4,-.2Zm7.5,0h3.1l.6,.2v.9h-4l-.2,-.5l.2,-.4l.3,-.2Zm7.5,0h3.3l.4,.2v.9h-4l-.2,-.5l.2,-.4l.3,-.2Zm7.5,0h3.4l.3,.2l.2,.4l-.2,.5h-4l-.2,-.5l.2,-.4l.3,-.2Zm7.6,0h3.3l.3,.2l.2,.4l-.2,.5h-4l-.2,-.5l.2,-.4l.4,-.2Zm7.5,0h3.3l.4,.2l.1,.4l-.1,.5h-4.1l-.2,-.5l.2,-.4l.4,-.2Zm7.5,0h3.3l.4,.2l.2,.4l-.2,.5H807l-.2,-.5l.2,-.4l.4,-.2Z" class="g2"/>
<path d="M815.1,380.4h3.1l.4,.2l.2,.4l-.2,.5h-4v-.9l.5,-.2Zm7.5,0h3.1l.4,.2l.2,.4l-.2,.5h-3.8l-.2,-.5l.2,-.4l.3,-.2Zm7.5,0h3.2l.5,.2v.9h-4l-.2,-.5l.2,-.4l.3,-.2Zm7.6,0H841l.3,.2v.9h-4l-.2,-.5l.2,-.4l.4,-.2Zm7.5,0h3.3l.3,.2l.2,.4l-.2,.5h-4l-.2,-.5l.2,-.4l.4,-.2Zm7.5,0H856l.4,.2l.1,.4l-.1,.5h-4.1l-.2,-.5l.2,-.4l.4,-.2Zm7.5,0h3.3l.4,.2l.2,.4l-.2,.5h-4.1l-.2,-.5l.2,-.4l.4,-.2Zm7.5,0H871l.4,.2l.2,.4l-.2,.5h-4l-.2,-.5l.2,-.4l.3,-.2Zm7.7,0h3.1l.4,.2l.2,.4l-.2,.5h-4v-.9l.5,-.2Z" class="g2"/>
<path d="M340.1,225.3h3.1l.4,.2l.1,.4l-.1,.3l-.4,.2h-3.1l-.6,-.2v-.7l.6,-.2Zm7.5,0h3.1l.4,.2l.2,.4l-.2,.3l-.4,.2h-3.1l-.4,-.2l-.2,-.3l.2,-.4l.4,-.2Zm7.5,0h3.1l.6,.2v.7l-.6,.2h-3.1l-.4,-.2l-.1,-.3l.1,-.4l.4,-.2Zm7.5,0h3.3l.4,.2v.7l-.4,.2h-3.3l-.3,-.2l-.2,-.3l.2,-.4l.3,-.2Zm7.5,0h3.3l.4,.2l.2,.4l-.2,.3l-.4,.2h-3.3l-.3,-.2l-.2,-.3l.2,-.4l.3,-.2Zm7.6,0H381l.3,.2l.2,.4l-.2,.3l-.3,.2h-3.3l-.4,-.2l-.2,-.3l.2,-.4l.4,-.2Zm7.5,0h3.3l.3,.2l.2,.4l-.2,.3l-.3,.2h-3.3l-.4,-.2l-.2,-.3l.2,-.4l.4,-.2Zm7.5,0H396l.4,.2l.1,.4l-.1,.3l-.4,.2h-3.3l-.4,-.2l-.2,-.3l.2,-.4l.4,-.2Zm7.7,0h3.1l.4,.2l.2,.4l-.2,.3l-.4,.2h-3.1l-.5,-.2v-.7l.5,-.2Z" class="g2"/>
<path d="M407.9,225.3H411l.4,.2l.2,.4l-.2,.3l-.4,.2h-3.1l-.3,-.2l-.2,-.3l.2,-.4l.3,-.2Zm7.5,0h3.1l.6,.2v.7l-.6,.2h-3.1l-.3,-.2l-.2,-.3l.2,-.4l.3,-.2Zm7.5,0h3.4l.3,.2v.7l-.3,.2h-3.4l-.3,-.2l-.2,-.3l.2,-.4l.3,-.2Zm7.6,0h3.3l.3,.2l.2,.4l-.2,.3l-.3,.2h-3.3l-.4,-.2l-.2,-.3l.2,-.4l.4,-.2Zm7.5,0h3.3l.3,.2l.2,.4l-.2,.3l-.3,.2H438l-.4,-.2l-.2,-.3l.2,-.4l.4,-.2Zm7.5,0h3.3l.4,.2l.1,.4l-.1,.3l-.4,.2h-3.3l-.4,-.2l-.2,-.3l.2,-.4l.4,-.2Zm7.5,0h3.3l.4,.2l.2,.4l-.2,.3l-.4,.2H453l-.3,-.2l-.2,-.3l.2,-.4l.3,-.2Zm7.7,0h3.1l.4,.2l.2,.4l-.2,.3l-.4,.2h-3.1l-.5,-.2v-.7l.5,-.2Zm7.5,0h3.1l.4,.2l.2,.4l-.2,.3l-.4,.2h-3.1l-.3,-.2l-.2,-.3l.2,-.4l.3,-.2Z" class="g2"/>
<path d="M475.8,225.3h3.1l.5,.2v.7l-.5,.2h-3.1l-.4,-.2l-.2,-.3l.2,-.4l.4,-.2Zm7.5,0h3.3l.3,.2v.7l-.3,.2h-3.3l-.4,-.2l-.2,-.3l.2,-.4l.4,-.2Zm7.5,0h3.3l.4,.2l.1,.4l-.1,.3l-.4,.2h-3.3l-.4,-.2l-.2,-.3l.2,-.4l.4,-.2Zm7.5,0h3.3l.4,.2l.2,.4l-.2,.3l-.4,.2h-3.3l-.4,-.2l-.1,-.3l.1,-.4l.4,-.2Zm7.5,0h3.3l.4,.2l.2,.4l-.2,.3l-.4,.2h-3.3l-.3,-.2l-.2,-.3l.2,-.4l.3,-.2Zm7.5,0h3.3l.4,.2l.2,.4l-.2,.3l-.4,.2h-3.3l-.3,-.2l-.2,-.3l.2,-.4l.3,-.2Zm7.7,0h3.2l.3,.2l.2,.4l-.2,.3l-.3,.2H521l-.5,-.2v-.7l.5,-.2Zm7.6,0h3.1l.3,.2l.2,.4l-.2,.3l-.3,.2h-3.1l-.4,-.2l-.2,-.3l.2,-.4l.4,-.2Zm7.5,0h3.1l.5,.2v.7l-.5,.2h-3.1l-.4,-.2l-.2,-.3l.2,-.4l.4,-.2Z" class="g2"/>
<path d="M543.6,225.3h3.3l.3,.2l.2,.4l-.2,.3l-.3,.2h-3.3l-.4,-.2l-.2,-.3l.2,-.4l.4,-.2Zm7.5,0h3.3l.4,.2l.1,.4l-.1,.3l-.4,.2h-3.3l-.4,-.2l-.2,-.3l.2,-.4l.4,-.2Zm7.5,0h3.3l.4,.2l.2,.4l-.2,.3l-.4,.2h-3.3l-.4,-.2l-.1,-.3l.1,-.4l.4,-.2Zm7.5,0h3.3l.4,.2l.2,.4l-.2,.3l-.4,.2h-3.3l-.3,-.2l-.2,-.3l.2,-.4l.3,-.2Zm7.5,0h3.3l.4,.2l.2,.4l-.2,.3l-.4,.2h-3.3l-.3,-.2v-.7l.3,-.2Zm7.7,0h3.2l.3,.2l.2,.4l-.2,.3l-.3,.2h-3.2l-.5,-.2v-.7l.5,-.2Zm7.6,0H592l.4,.2l.1,.4l-.1,.3l-.4,.2h-3.1l-.4,-.2l-.2,-.3l.2,-.4l.4,-.2Zm7.5,0h3.1l.5,.2v.7l-.5,.2h-3.1l-.4,-.2l-.2,-.3l.2,-.4l.4,-.2Zm7.5,0h3.3l.4,.2l.1,.4l-.1,.3l-.4,.2h-3.3l-.4,-.2l-.2,-.3l.2,-.4l.4,-.2Z" class="g2"/>
<path d="M611.4,225.3h3.3l.4,.2l.2,.4l-.2,.3l-.4,.2h-3.3l-.4,-.2l-.1,-.3l.1,-.4l.4,-.2Zm7.5,0h3.3l.4,.2l.2,.4l-.2,.3l-.4,.2h-3.3l-.3,-.2l-.2,-.3l.2,-.4l.3,-.2Zm7.5,0h3.3l.4,.2l.2,.4l-.2,.3l-.4,.2h-3.3l-.3,-.2l-.2,-.3l.2,-.4l.3,-.2Zm7.6,0h3.3l.3,.2l.2,.4l-.2,.3l-.3,.2H634l-.4,-.2v-.7l.4,-.2Zm7.7,0h3.1l.3,.2l.2,.4l-.2,.3l-.3,.2h-3.1l-.6,-.2v-.7l.6,-.2Zm7.5,0h3.1l.4,.2l.1,.4l-.1,.3l-.4,.2h-3.1l-.4,-.2l-.2,-.3l.2,-.4l.4,-.2Zm7.5,0h3.1l.6,.2v.7l-.6,.2h-3.1l-.4,-.2l-.2,-.3l.2,-.4l.4,-.2Zm7.5,0h3.3l.4,.2l.2,.4l-.2,.3l-.4,.2h-3.3l-.4,-.2l-.1,-.3l.1,-.4l.4,-.2Zm7.5,0H675l.4,.2l.2,.4l-.2,.3l-.4,.2h-3.3l-.3,-.2l-.2,-.3l.2,-.4l.3,-.2Z" class="g2"/>
<path d="M679.2,225.3h3.3l.4,.2l.2,.4l-.2,.3l-.4,.2h-3.3l-.3,-.2l-.2,-.3l.2,-.4l.3,-.2Zm7.6,0h3.3l.3,.2l.2,.4l-.2,.3l-.3,.2h-3.3l-.4,-.2l-.2,-.3l.2,-.4l.4,-.2Zm7.5,0h3.3l.3,.2l.2,.4l-.2,.3l-.3,.2h-3.3l-.4,-.2v-.7l.4,-.2Zm7.7,0h3.1l.4,.2l.1,.4l-.1,.3l-.4,.2H702l-.4,-.2l-.2,-.3l.2,-.4l.4,-.2Zm7.5,0h3.1l.6,.2v.7l-.6,.2h-3.1l-.4,-.2l-.2,-.3l.2,-.4l.4,-.2Zm7.5,0h3.3l.4,.2v.7l-.4,.2H717l-.4,-.2l-.1,-.3l.1,-.4l.4,-.2Zm7.5,0h3.3l.4,.2l.2,.4l-.2,.3l-.4,.2h-3.3l-.3,-.2l-.2,-.3l.2,-.4l.3,-.2Zm7.5,0h3.3l.4,.2l.2,.4l-.2,.3l-.4,.2H732l-.3,-.2l-.2,-.3l.2,-.4l.3,-.2Zm7.6,0h3.3l.3,.2l.2,.4l-.2,.3l-.3,.2h-3.3l-.4,-.2l-.2,-.3l.2,-.4l.4,-.2Z" class="g2"/>
<path d="M747.1,225.3h3.3l.3,.2l.2,.4l-.2,.3l-.3,.2h-3.3l-.4,-.2l-.2,-.3l.2,-.4l.4,-.2Zm7.7,0h3.1l.4,.2l.2,.4l-.2,.3l-.4,.2h-3.1l-.6,-.2v-.7l.6,-.2Zm7.5,0h3.1l.4,.2l.2,.4l-.2,.3l-.4,.2h-3.1l-.4,-.2l-.1,-.3l.1,-.4l.4,-.2Zm7.5,0h3.1l.6,.2v.7l-.6,.2h-3.1l-.3,-.2l-.2,-.3l.2,-.4l.3,-.2Zm7.5,0h3.3l.4,.2v.7l-.4,.2h-3.3l-.3,-.2l-.2,-.3l.2,-.4l.3,-.2Zm7.5,0h3.4l.3,.2l.2,.4l-.2,.3l-.3,.2h-3.4l-.3,-.2l-.2,-.3l.2,-.4l.3,-.2Zm7.6,0h3.3l.3,.2l.2,.4l-.2,.3l-.3,.2h-3.3l-.4,-.2l-.2,-.3l.2,-.4l.4,-.2Zm7.5,0h3.3l.4,.2l.1,.4l-.1,.3l-.4,.2h-3.3l-.4,-.2l-.2,-.3l.2,-.4l.4,-.2Zm7.5,0h3.3l.4,.2l.2,.4l-.2,.3l-.4,.2h-3.3l-.4,-.2l-.2,-.3l.2,-.4l.4,-.2Z" class="g2"/>
<path d="M815.1,225.3h3.1l.4,.2l.2,.4l-.2,.3l-.4,.2h-3.1l-.5,-.2v-.7l.5,-.2Zm7.5,0h3.1l.4,.2l.2,.4l-.2,.3l-.4,.2h-3.1l-.3,-.2l-.2,-.3l.2,-.4l.3,-.2Zm7.5,0h3.2l.5,.2v.7l-.5,.2h-3.2l-.3,-.2l-.2,-.3l.2,-.4l.3,-.2Zm7.6,0H841l.3,.2v.7l-.3,.2h-3.3l-.4,-.2l-.2,-.3l.2,-.4l.4,-.2Zm7.5,0h3.3l.3,.2l.2,.4l-.2,.3l-.3,.2h-3.3l-.4,-.2l-.2,-.3l.2,-.4l.4,-.2Zm7.5,0H856l.4,.2l.1,.4l-.1,.3l-.4,.2h-3.3l-.4,-.2l-.2,-.3l.2,-.4l.4,-.2Zm7.5,0h3.3l.4,.2l.2,.4l-.2,.3l-.4,.2h-3.3l-.4,-.2l-.2,-.3l.2,-.4l.4,-.2Zm7.5,0H871l.4,.2l.2,.4l-.2,.3l-.4,.2h-3.3l-.3,-.2l-.2,-.3l.2,-.4l.3,-.2Zm7.7,0h3.1l.4,.2l.2,.4l-.2,.3l-.4,.2h-3.1l-.5,-.2v-.7l.5,-.2Z" class="g2"/>
<path d="M341.2,966.5h3.5l.2,.6l-.2,.4l-.4,.1h-3.1l-.6,-.1v-1h.6Zm7.5,0h3.5l.2,.6l-.2,.4l-.4,.1h-3.1l-.4,-.1l-.1,-.4l.1,-.6h.4Zm7.5,0h3.7v1l-.6,.1h-3.1l-.3,-.1l-.2,-.4l.2,-.6h.3Zm7.5,0h3.7l.2,.6l-.2,.4l-.4,.1h-3.3l-.3,-.1l-.2,-.4l.2,-.6h.3Zm7.6,0h3.6l.2,.6l-.2,.4l-.3,.1h-3.3l-.4,-.1l-.2,-.4l.2,-.6h.4Zm7.5,0h3.6l.2,.6l-.2,.4l-.3,.1h-3.3l-.4,-.1l-.2,-.4l.2,-.6h.4Zm7.5,0H390l.1,.6l-.1,.4l-.4,.1h-3.3l-.4,-.1l-.2,-.4l.2,-.6h.4Zm7.5,0h3.7l.2,.6l-.2,.4l-.4,.1h-3.3l-.4,-.1v-1h.4Zm7.7,0H405l.2,.6l-.2,.4l-.4,.1h-3.1l-.4,-.1l-.1,-.4l.1,-.6h.4Z" class="g2"/>
<path d="M409,966.5h3.7v1l-.6,.1H409l-.3,-.1l-.2,-.4l.2,-.6h.3Zm7.5,0h3.7v1l-.4,.1h-3.3l-.3,-.1l-.2,-.4l.2,-.6h.3Zm7.5,0h3.7l.2,.6l-.2,.4l-.3,.1H424l-.3,-.1l-.2,-.4l.2,-.6h.3Zm7.6,0h3.6l.2,.6l-.2,.4l-.3,.1h-3.3l-.4,-.1l-.2,-.4l.2,-.6h.4Zm7.5,0h3.6l.2,.6l-.2,.4l-.3,.1h-3.3l-.4,-.1l-.2,-.4l.2,-.6h.4Zm7.5,0h3.7l.1,.6l-.1,.4l-.4,.1h-3.3l-.4,-.1l-.2,-.4l.2,-.6h.4Zm7.7,0h3.5l.2,.6l-.2,.4l-.4,.1h-3.1l-.5,-.1v-1h.5Zm7.5,0h3.5l.2,.6l-.2,.4l-.4,.1h-3.1l-.3,-.1l-.2,-.4l.2,-.6h.3Zm7.5,0H473v1l-.6,.1h-3.1l-.3,-.1l-.2,-.4l.2,-.6h.3Z" class="g2"/>
<path d="M476.8,966.5h3.7v1l-.3,.1h-3.4l-.3,-.1l-.2,-.4l.2,-.6h.3Zm7.6,0H488l.2,.6l-.2,.4l-.3,.1h-3.3l-.4,-.1l-.2,-.4l.2,-.6h.4Zm7.5,0h3.6l.2,.6l-.2,.4l-.3,.1h-3.3l-.4,-.1l-.2,-.4l.2,-.6h.4Zm7.5,0h3.7l.1,.6l-.1,.4l-.4,.1h-3.3l-.4,-.1l-.2,-.4l.2,-.6h.4Zm7.5,0h3.7l.2,.6l-.2,.4l-.4,.1h-3.3l-.3,-.1l-.2,-.4l.2,-.6h.3Zm7.7,0h3.5l.2,.6l-.2,.4l-.4,.1h-3.1l-.5,-.1v-1h.5Zm7.5,0h3.5l.2,.6l-.2,.4l-.4,.1h-3.1l-.3,-.1l-.2,-.4l.2,-.6h.3Zm7.5,0h3.7v1l-.5,.1h-3.2l-.3,-.1l-.2,-.4l.2,-.6h.3Zm7.6,0h3.6v1l-.3,.1h-3.3l-.4,-.1l-.2,-.4l.2,-.6h.4Z" class="g2"/>
<path d="M544.7,966.5h3.6l.2,.6l-.2,.4l-.3,.1h-3.3l-.4,-.1l-.2,-.4l.2,-.6h.4Zm7.5,0h3.7l.1,.6l-.1,.4l-.4,.1h-3.3l-.4,-.1l-.2,-.4l.2,-.6h.4Zm7.5,0h3.7l.2,.6l-.2,.4l-.4,.1h-3.3l-.4,-.1l-.1,-.4l.1,-.6h.4Zm7.5,0h3.7l.2,.6l-.2,.4l-.4,.1h-3.3l-.3,-.1l-.2,-.4l.2,-.6h.3Zm7.7,0h3.5l.2,.6l-.2,.4l-.4,.1h-3.1l-.5,-.1v-1h.5Zm7.5,0h3.5l.2,.6l-.2,.4l-.3,.1h-3.2l-.3,-.1l-.2,-.4l.2,-.6h.3Zm7.6,0h3.6v1l-.5,.1H590l-.4,-.1l-.2,-.4l.2,-.6h.4Zm7.5,0h3.6l.2,.6l-.2,.4l-.3,.1h-3.3l-.4,-.1l-.2,-.4l.2,-.6h.4Zm7.5,0h3.7l.1,.6l-.1,.4l-.4,.1H605l-.4,-.1l-.2,-.4l.2,-.6h.4Z" class="g2"/>
<path d="M612.5,966.5h3.7l.2,.6l-.2,.4l-.4,.1h-3.3l-.4,-.1l-.1,-.4l.1,-.6h.4Zm7.5,0h3.7l.2,.6l-.2,.4l-.4,.1H620l-.3,-.1l-.2,-.4l.2,-.6h.3Zm7.5,0h3.7l.2,.6l-.2,.4l-.4,.1h-3.3l-.3,-.1v-1h.3Zm7.7,0h3.5l.2,.6l-.2,.4l-.3,.1h-3.2l-.5,-.1v-1h.5Zm7.6,0h3.4l.2,.6l-.2,.4l-.3,.1h-3.1l-.4,-.1l-.2,-.4l.2,-.6h.4Zm7.5,0h3.6v1l-.5,.1h-3.1l-.4,-.1l-.2,-.4l.2,-.6h.4Zm7.5,0h3.7l.1,.6l-.1,.4l-.4,.1h-3.3l-.4,-.1l-.2,-.4l.2,-.6h.4Zm7.5,0H669l.2,.6l-.2,.4l-.4,.1h-3.3l-.4,-.1l-.1,-.4l.1,-.6h.4Zm7.5,0h3.7l.2,.6l-.2,.4l-.4,.1h-3.3l-.3,-.1l-.2,-.4l.2,-.6h.3Z" class="g2"/>
<path d="M680.4,966.5H684l.2,.6l-.2,.4l-.3,.1h-3.3l-.4,-.1l-.2,-.4l.2,-.6h.4Zm7.5,0h3.6l.2,.6l-.2,.4l-.3,.1h-3.3l-.4,-.1v-1h.4Zm7.7,0h3.5l.1,.6l-.1,.4l-.4,.1h-3.1l-.6,-.1v-1h.6Zm7.5,0h3.5l.2,.6l-.2,.4l-.4,.1h-3.1l-.4,-.1l-.2,-.4l.2,-.6h.4Zm7.5,0h3.7v1l-.6,.1h-3.1l-.4,-.1l-.1,-.4l.1,-.6h.4Zm7.5,0h3.7l.2,.6l-.2,.4l-.4,.1h-3.3l-.3,-.1l-.2,-.4l.2,-.6h.3Zm7.5,0h3.7l.2,.6l-.2,.4l-.4,.1h-3.3l-.3,-.1l-.2,-.4l.2,-.6h.3Zm7.6,0h3.6l.2,.6l-.2,.4l-.3,.1h-3.3l-.4,-.1l-.2,-.4l.2,-.6h.4Zm7.5,0h3.6l.2,.6l-.2,.4l-.3,.1h-3.3l-.4,-.1l-.2,-.4l.2,-.6h.4Z" class="g2"/>
<path d="M748.2,966.5h3.7l.1,.6l-.1,.4l-.4,.1h-3.3l-.4,-.1v-1h.4Zm7.7,0h3.5l.2,.6l-.2,.4l-.4,.1h-3.1l-.6,-.1v-1h.6Zm7.5,0h3.5l.2,.6l-.2,.4l-.4,.1h-3.1l-.4,-.1l-.1,-.4l.1,-.6h.4Zm7.5,0h3.7v1l-.4,.1h-3.3l-.3,-.1l-.2,-.4l.2,-.6h.3Zm7.5,0h3.7l.2,.6l-.2,.4l-.4,.1h-3.3l-.3,-.1l-.2,-.4l.2,-.6h.3Zm7.6,0h3.6l.2,.6l-.2,.4l-.3,.1H786l-.4,-.1l-.2,-.4l.2,-.6h.4Zm7.5,0h3.6l.2,.6l-.2,.4l-.3,.1h-3.3l-.4,-.1l-.2,-.4l.2,-.6h.4Zm7.5,0h3.7l.1,.6l-.1,.4l-.4,.1H801l-.4,-.1l-.2,-.4l.2,-.6h.4Zm7.7,0h3.5l.2,.6l-.2,.4l-.4,.1h-3.1l-.6,-.1v-1h.6Z" class="g2"/>
<path d="M816.2,966.5h3.5l.2,.6l-.2,.4l-.4,.1h-3.1l-.4,-.1l-.1,-.4l.1,-.6h.4Zm7.5,0h3.7v1l-.6,.1h-3.1l-.4,-.1l-.1,-.4l.1,-.6h.4Zm7.5,0h3.7v1l-.4,.1h-3.3l-.3,-.1l-.2,-.4l.2,-.6h.3Zm7.6,0h3.6l.2,.6l-.2,.4l-.4,.1h-3.2l-.4,-.1l-.2,-.4l.2,-.6h.4Zm7.5,0h3.6l.2,.6l-.2,.4l-.3,.1h-3.3l-.4,-.1l-.2,-.4l.2,-.6h.4Zm7.5,0h3.6l.2,.6l-.2,.4l-.3,.1h-3.3l-.4,-.1l-.2,-.4l.2,-.6h.4Zm7.5,0H865l.1,.6l-.1,.4l-.4,.1h-3.3l-.4,-.1l-.2,-.4l.2,-.6h.4Zm7.7,0h3.5l.2,.6l-.2,.4l-.4,.1H869l-.5,-.1v-1h.5Zm7.5,0H880l.2,.6l-.2,.4l-.4,.1h-3.1l-.4,-.1l-.1,-.4l.1,-.6h.4Z" class="g2"/>
<path d="M338.6,18l4.2,1035.3" class="g3"/>
</svg>